<?xml version="1.0" standalone="no"?>
<!DOCTYPE svg PUBLIC "-//W3C//DTD SVG 20010904//EN"
 "http://www.w3.org/TR/2001/REC-SVG-20010904/DTD/svg10.dtd">
<svg version="1.0" xmlns="http://www.w3.org/2000/svg"
 width="1920.000000pt" height="852.000000pt" viewBox="0 0 1920.000000 852.000000"
 preserveAspectRatio="xMidYMid meet">

<g transform="translate(0.000000,852.000000) scale(0.100000,-0.100000)"
fill="#000000" stroke="none">
<path d="M0 4260 l0 -4260 191 2 190 3 31 55 c148 269 412 635 656 910 154
174 455 463 652 627 201 167 573 433 605 433 7 0 22 -21 33 -48 11 -26 44 -96
73 -157 57 -119 71 -157 188 -495 98 -279 90 -259 106 -295 7 -16 18 -41 24
-55 19 -45 41 -115 41 -132 0 -10 -7 -18 -15 -18 -8 0 -15 -9 -15 -19 0 -14 5
-18 20 -14 19 5 19 1 15 -71 -2 -42 -1 -76 3 -76 7 0 23 -52 38 -120 9 -40 37
-90 51 -90 13 0 17 -11 14 -42 -1 -10 4 -30 12 -45 8 -16 50 -101 93 -190 l78
-163 1501 0 c825 0 1494 4 1487 9 -10 6 -10 11 3 21 18 15 52 1 47 -19 -1 -8
446 -11 1598 -11 l1600 0 0 55 c0 50 -3 58 -37 93 -21 21 -63 70 -92 110 -30
40 -59 72 -64 72 -5 0 -46 35 -91 78 -44 43 -117 109 -161 148 -128 111 -260
242 -253 250 4 4 64 7 134 8 121 1 126 0 145 -23 27 -33 24 -51 -8 -52 -26 0
-24 -2 14 -19 49 -22 171 -34 193 -20 8 5 10 10 4 10 -5 0 -18 6 -27 13 -16
11 -14 16 23 57 l41 45 72 -4 c157 -9 170 -8 172 16 2 23 -30 38 -58 27 -8 -3
-52 0 -98 6 -46 7 -88 12 -94 12 -38 -1 -87 -11 -98 -21 -29 -23 -105 -29
-224 -15 -151 18 -223 22 -217 12 3 -5 0 -8 -5 -8 -6 0 -11 5 -11 11 0 6 -9 9
-20 6 -11 -3 -23 0 -26 5 -5 7 -44 8 -115 4 -69 -5 -115 -3 -128 3 -24 13 -91
147 -91 183 0 14 8 40 17 56 l17 30 -51 49 c-28 26 -58 62 -68 78 -9 17 -37
42 -61 57 -51 32 -77 74 -53 89 21 13 27 11 34 -11 12 -36 56 -80 81 -80 27 0
31 12 9 30 -8 7 -15 17 -15 23 0 5 -16 32 -36 59 -39 55 -50 97 -40 153 9 44
56 100 108 126 28 14 38 26 38 44 0 13 4 26 9 30 5 3 15 22 22 43 6 20 23 53
37 72 19 26 20 30 6 17 -12 -9 -29 -17 -40 -17 -28 0 -46 -16 -87 -80 -20 -31
-47 -66 -62 -80 -14 -13 -25 -28 -25 -35 0 -6 -16 -44 -36 -85 -58 -121 -58
-119 -26 -131 l27 -11 -25 -11 c-14 -5 -32 -11 -40 -13 -23 -5 -37 -30 -43
-79 -4 -25 -24 -75 -45 -112 -21 -38 -49 -90 -62 -118 -45 -93 -88 -123 -163
-111 -94 15 -110 62 -58 172 17 36 26 67 21 74 -18 29 7 149 54 253 16 35 32
99 41 160 16 118 18 123 61 198 27 46 32 61 24 85 -4 16 -9 22 -9 15 -1 -8
-35 -59 -76 -112 -41 -54 -75 -100 -75 -104 0 -3 -11 -30 -24 -58 -14 -29 -39
-92 -57 -142 -18 -49 -41 -103 -51 -120 -10 -16 -18 -42 -18 -57 0 -15 -15
-69 -34 -120 -19 -51 -42 -119 -52 -151 -33 -110 -89 -138 -198 -99 -63 22
-70 44 -45 138 10 39 20 118 22 184 4 102 9 125 40 206 19 50 43 131 52 180
24 120 51 206 80 249 22 32 23 35 6 35 -10 0 -26 -9 -36 -20 -10 -11 -24 -20
-31 -20 -21 0 -74 -85 -100 -163 -27 -79 -74 -315 -74 -373 0 -50 -27 -102
-63 -120 -34 -18 -90 -13 -142 12 -37 17 -62 61 -45 78 5 5 10 23 10 38 0 27
3 36 29 85 10 20 9 23 -8 23 -14 0 -17 6 -13 25 2 14 -1 46 -8 71 -13 45 -13
46 -26 23 -7 -13 -13 -36 -14 -51 0 -41 -17 -34 -40 16 -11 24 -32 54 -46 65
-34 27 -34 60 1 158 39 113 40 113 -55 113 -64 0 -80 3 -80 15 0 14 22 20 63
15 21 -2 49 18 42 31 -3 4 -26 11 -50 15 -25 3 -45 10 -45 15 0 5 -7 9 -15 9
-10 0 -15 -10 -15 -30 0 -32 -3 -34 -95 -44 -27 -4 -55 -13 -61 -21 -9 -12
-33 -16 -92 -18 -72 -2 -83 0 -105 21 -14 13 -28 35 -31 48 -5 20 -13 24 -44
24 -24 0 -43 7 -54 19 -11 13 -36 21 -79 26 -35 4 -70 12 -78 19 -23 18 -206
13 -274 -8 -32 -10 -57 -19 -55 -21 2 -2 51 5 108 17 101 19 108 19 178 3 71
-16 96 -35 90 -67 -2 -8 14 -14 49 -18 58 -6 83 -20 36 -20 -16 0 -58 -3 -93
-7 -47 -4 -61 -3 -56 5 5 8 0 12 -13 12 -12 0 -18 -5 -16 -13 3 -7 -4 -13 -17
-14 -13 -1 -54 -8 -92 -15 -54 -10 -70 -18 -76 -34 -9 -23 -7 -22 -359 -40
-121 -7 -134 -6 -128 9 5 12 0 16 -21 16 -15 0 -39 1 -53 2 -15 1 -35 -7 -46
-18 -21 -21 -98 -27 -783 -58 -184 -9 -384 -19 -443 -23 l-108 -7 -19 30 c-55
89 -188 381 -178 391 8 7 147 17 163 11 14 -6 14 -9 -1 -38 -30 -59 -1 -179
50 -206 47 -25 207 -28 561 -9 171 9 369 18 440 21 297 13 492 26 523 36 27 9
38 22 62 76 17 36 30 73 30 83 0 9 -13 29 -30 45 -61 59 -139 53 975 75 253 6
650 10 882 10 l423 0 20 43 c41 87 115 99 233 37 41 -22 86 -40 99 -40 14 0
53 14 88 31 89 43 114 36 205 -52 l72 -69 62 0 c38 0 80 -7 109 -19 26 -11 80
-31 120 -46 56 -21 79 -36 106 -68 57 -71 66 -97 66 -197 0 -81 -3 -97 -30
-149 -26 -52 -36 -63 -85 -85 -30 -15 -55 -32 -54 -39 0 -7 6 -41 13 -77 l12
-65 44 -5 c91 -10 292 7 348 29 63 25 145 27 255 6 43 -8 81 -15 83 -15 3 0
33 -27 68 -59 l64 -60 98 5 c55 3 164 13 244 22 228 27 250 25 366 -32 55 -27
128 -59 164 -71 87 -31 200 -73 225 -85 11 -5 70 -27 130 -49 179 -64 345
-103 345 -81 0 5 -7 10 -15 10 -12 0 -9 7 9 27 23 25 24 29 10 44 -14 16 -14
18 2 27 15 8 16 14 7 35 -15 33 5 62 49 72 46 11 148 8 181 -4 33 -13 33 -16
4 -189 l-23 -132 52 -19 c28 -11 80 -25 115 -31 75 -13 365 -104 426 -133 23
-12 45 -27 48 -36 4 -9 -13 -33 -45 -66 -27 -28 -50 -55 -50 -61 0 -6 -9 -19
-20 -29 -11 -10 -36 -50 -55 -89 -19 -39 -47 -91 -61 -116 -15 -25 -40 -81
-56 -125 -16 -44 -34 -93 -40 -110 -35 -93 -64 -111 -137 -87 -41 14 -51 14
-110 -3 -94 -25 -296 -30 -430 -10 -118 18 -258 51 -401 94 -52 16 -135 41
-185 56 -49 15 -106 36 -127 47 -23 12 -45 17 -58 13 -34 -11 -110 10 -284 77
-16 6 -41 22 -57 35 l-29 24 -77 -17 c-43 -9 -91 -23 -107 -31 -15 -8 -39 -12
-52 -9 -44 11 -25 -10 29 -32 30 -13 87 -26 128 -31 41 -5 91 -15 111 -24 21
-9 77 -26 125 -38 49 -12 112 -33 142 -45 57 -26 307 -74 609 -119 143 -21
454 -45 594 -45 116 0 212 -13 236 -32 6 -6 12 -8 12 -4 0 4 25 -9 55 -29 l55
-35 515 0 c407 0 514 3 512 13 -1 7 8 12 23 12 31 0 35 8 20 45 -10 24 -10 33
1 46 7 9 12 32 10 51 -3 34 -1 35 23 29 24 -6 25 -5 14 25 -8 24 -8 37 1 50 6
10 11 26 11 34 0 8 7 15 15 15 8 0 15 9 15 21 0 11 12 36 26 55 15 19 25 36
23 38 -2 2 -26 11 -54 19 -66 19 -68 37 -9 79 27 18 70 55 96 82 26 26 48 44
48 38 0 -5 9 -12 20 -15 25 -6 26 7 3 25 -10 7 -26 23 -36 34 -16 20 -16 23
12 80 55 109 63 141 88 359 l7 60 7 -40 c6 -34 7 -31 7 25 1 133 0 130 25 130
28 0 99 -33 124 -57 11 -10 28 -23 38 -29 10 -6 23 -19 29 -30 6 -10 17 -23
24 -27 7 -5 10 -12 8 -16 -3 -4 4 -36 15 -72 23 -73 20 -131 -13 -237 -15 -51
-30 -74 -72 -115 -29 -29 -65 -74 -81 -102 -50 -88 -67 -108 -76 -94 -4 8 -11
11 -14 7 -7 -7 18 -50 47 -82 30 -33 11 -38 -116 -31 -140 7 -141 9 27 -75 92
-47 129 -60 165 -61 33 0 41 -3 27 -8 -18 -7 -17 -9 12 -25 18 -9 49 -28 70
-42 61 -41 339 -175 396 -190 59 -16 107 -18 107 -6 0 5 27 17 60 28 33 10 60
22 60 26 0 5 9 8 21 8 11 0 19 5 17 11 -5 15 -109 49 -130 43 -10 -3 -26 -1
-36 5 -11 6 -37 12 -58 14 -38 4 -39 5 -46 53 -3 27 -7 70 -7 95 l-1 47 118
11 c64 7 171 19 237 28 66 8 143 18 171 20 l52 5 -5 -94 c-6 -137 -9 -151 -49
-189 -20 -19 -47 -55 -60 -81 l-24 -48 208 0 209 0 7 46 c3 26 6 59 6 75 0 32
18 42 42 22 10 -9 22 -12 30 -7 15 10 58 6 74 -7 7 -5 24 -4 44 2 27 10 34 9
41 -4 7 -12 17 -13 51 -6 26 6 43 6 47 0 6 -8 56 -16 74 -11 4 1 11 3 16 4 5
0 12 4 16 7 7 8 45 0 45 -10 0 -3 14 -6 30 -7 17 -1 30 3 30 7 0 5 7 6 15 3 8
-4 21 -1 29 5 7 6 27 8 45 5 23 -5 31 -12 31 -28 0 -16 3 -17 9 -7 5 7 6 22 4
32 -6 20 11 26 22 8 4 -6 13 -8 20 -5 23 9 35 -19 30 -72 l-4 -52 130 0 130 0
-15 28 c-8 15 -19 55 -24 87 -14 81 -9 461 7 500 17 41 95 115 123 115 12 0
35 12 51 28 22 21 38 27 75 27 29 1 64 10 90 23 23 13 48 20 54 16 6 -4 18 -8
27 -9 9 -1 28 -5 42 -9 16 -5 39 -2 61 7 38 16 112 14 133 -3 11 -9 28 -9 71
0 64 14 124 7 165 -17 21 -12 31 -14 41 -5 20 16 108 17 143 1 17 -7 70 -14
120 -14 118 -2 155 -12 155 -41 0 -19 20 -18 34 2 18 24 114 29 138 8 10 -10
21 -14 25 -11 3 4 12 2 20 -4 7 -7 48 -13 91 -15 74 -4 78 -5 107 -40 24 -29
36 -35 52 -30 12 4 30 3 40 -3 10 -5 30 -12 45 -15 16 -4 32 -17 40 -33 7 -15
22 -29 33 -31 39 -7 105 -42 120 -66 12 -17 28 -25 66 -30 43 -6 53 -12 69
-39 11 -18 32 -42 48 -54 20 -14 36 -43 53 -90 20 -57 23 -85 22 -175 l-2
-108 649 0 650 0 0 104 c0 74 -4 106 -12 110 -10 5 -10 7 0 12 6 3 12 16 12
29 0 13 -6 26 -12 28 -10 4 -10 6 0 6 8 1 12 19 12 55 l0 54 -49 -1 c-54 -2
-71 7 -53 25 9 9 20 9 47 -1 19 -7 39 -9 45 -6 16 10 12 42 -6 49 -9 4 -14 13
-10 21 6 17 -17 31 -34 20 -8 -5 -5 -11 6 -20 16 -12 16 -13 -3 -24 -12 -6
-28 -8 -36 -5 -16 6 -77 -44 -77 -63 0 -7 9 -13 19 -13 20 0 35 -25 25 -41 -7
-12 -44 -12 -44 0 0 16 -58 71 -74 71 -17 0 -21 -20 -7 -36 5 -5 12 -27 16
-48 6 -34 5 -38 -8 -28 -8 7 -17 26 -20 42 -4 19 -17 35 -36 45 -28 14 -31 14
-40 -2 -7 -13 -20 -17 -49 -15 -33 3 -40 0 -45 -17 -7 -27 -37 -28 -37 -1 0
27 -40 27 -47 1 -3 -11 -13 -21 -24 -24 -23 -6 -26 -37 -3 -37 9 0 18 9 21 20
3 11 14 20 24 20 15 0 19 -7 19 -39 0 -52 -8 -71 -31 -71 -12 0 -19 -7 -19
-20 0 -11 -4 -20 -10 -20 -5 0 -10 9 -10 20 0 13 -7 20 -20 20 -15 0 -22 9
-27 30 -5 26 -9 29 -27 24 -11 -4 -22 -11 -24 -15 -2 -5 -10 -9 -17 -9 -8 0
-21 -7 -29 -16 -9 -8 -16 -11 -16 -5 0 5 7 16 15 25 23 22 24 59 1 64 -10 2
-23 -2 -27 -10 -7 -11 -11 -10 -19 2 -5 8 -11 20 -14 25 -2 6 -12 5 -25 -3
-32 -19 -51 0 -51 52 0 30 -3 37 -10 26 -9 -13 -11 -13 -20 0 -7 11 -8 6 -4
-17 4 -18 3 -33 -2 -33 -15 1 -46 49 -39 61 4 5 -7 15 -25 22 -29 11 -31 15
-28 49 3 32 0 38 -15 38 -13 0 -17 5 -13 15 3 9 -1 18 -9 21 -8 4 -15 14 -15
24 0 14 7 18 26 17 15 -1 29 4 31 11 3 8 -6 12 -26 12 -17 0 -31 -4 -31 -9 0
-5 -18 -11 -40 -13 -26 -2 -40 1 -40 8 0 7 6 12 13 11 33 -1 48 4 44 16 -2 6
-12 12 -23 13 -37 2 -44 4 -44 14 0 6 25 10 55 10 60 0 68 9 30 34 -14 9 -25
24 -25 34 0 9 -9 23 -20 30 -18 11 -20 10 -20 -8 0 -11 -2 -20 -5 -20 -7 0
-45 39 -45 46 0 3 -13 26 -30 50 -29 43 -29 44 -9 58 17 11 17 14 5 19 -9 4
-22 0 -30 -8 -21 -21 -26 -19 -26 14 0 36 -15 48 -29 24 -16 -29 -23 -8 -23
64 4 376 10 478 32 533 19 47 21 67 16 133 -4 43 -13 95 -20 115 -13 34 -36
135 -51 224 -6 41 -6 42 45 28 78 -20 230 -60 305 -80 123 -33 304 -81 360
-95 28 -7 82 -21 120 -32 39 -11 126 -35 195 -53 69 -18 154 -41 189 -51 35
-10 67 -19 72 -19 6 0 9 454 9 1140 -1 702 -5 1140 -11 1140 -5 0 -11 -1 -13
-2 -2 -2 -13 6 -25 16 -21 19 -22 19 -36 0 -8 -10 -15 -14 -15 -8 0 23 29 38
53 27 16 -8 25 -7 35 3 19 21 15 26 -20 24 -48 -3 -58 -1 -58 10 0 6 18 7 45
3 46 -6 67 11 23 20 -23 4 -23 4 1 6 16 1 21 5 17 16 -3 8 -9 22 -12 30 -3 8
-1 15 5 15 6 0 11 4 11 8 0 10 -30 9 -46 -1 -6 -3 -21 7 -33 23 -12 17 -30 30
-41 30 -10 0 -21 4 -25 9 -3 6 12 9 35 8 22 -1 40 -5 40 -11 0 -13 32 -35 53
-36 14 0 17 9 17 54 0 34 -5 56 -12 59 -10 4 -10 7 0 18 15 16 16 79 1 79 -8
0 -7 5 1 15 10 12 10 21 2 40 -13 27 -32 34 -32 11 0 -11 -9 -13 -35 -9 -34 5
-35 4 -35 -25 0 -17 -6 -33 -12 -35 -7 -2 -1 -3 14 -1 14 2 30 -2 35 -9 14
-19 10 -42 -9 -42 -9 0 -20 -4 -24 -8 -4 -4 0 -7 9 -7 9 0 18 -4 22 -10 3 -5
-14 -7 -45 -3 -32 4 -50 2 -50 -5 0 -6 6 -12 13 -15 21 -7 -1 -20 -40 -23 -21
-1 -40 -3 -43 -4 -3 -1 -13 -3 -22 -4 -31 -2 -14 -21 20 -21 26 0 32 -4 32
-22 0 -12 5 -25 10 -28 19 -11 10 -25 -16 -25 -14 0 -23 4 -20 8 3 5 -8 6 -25
4 -51 -8 -28 -32 31 -32 16 0 31 -4 34 -9 9 -14 -61 -18 -80 -4 -21 15 -54 17
-54 4 0 -5 -3 -16 -6 -24 -7 -20 33 -44 49 -28 6 6 19 11 30 11 14 0 18 -6 15
-27 -3 -30 -33 -42 -66 -27 -9 4 -22 6 -29 5 -6 -1 -14 3 -18 9 -3 5 1 10 9
10 9 0 16 5 16 10 0 15 -17 12 -35 -7 -13 -13 -18 -14 -25 -3 -5 8 -15 10 -26
6 -15 -6 -16 -9 -4 -16 22 -14 5 -23 -19 -10 -17 9 -21 8 -21 -4 0 -9 12 -18
28 -22 15 -3 32 -7 39 -9 6 -2 14 3 17 11 8 20 26 17 26 -5 0 -17 -16 -27 -45
-28 -5 -1 -9 3 -8 8 2 5 -11 9 -27 9 -20 0 -38 9 -52 25 -22 25 -58 34 -58 14
0 -6 -9 -9 -20 -6 -19 5 -33 -6 -36 -28 0 -5 -2 -16 -2 -22 -3 -21 -19 -15
-25 8 -5 17 -11 20 -31 15 -35 -9 -35 20 0 36 20 10 27 9 34 -2 5 -8 12 -11
17 -7 14 14 -21 27 -72 26 -27 -1 -42 -3 -32 -6 34 -9 16 -23 -29 -23 -33 0
-51 -5 -60 -17 -12 -16 -13 -15 -14 13 0 37 -25 63 -42 46 -9 -9 -7 -12 10
-12 25 0 30 -25 6 -34 -36 -14 -184 -2 -184 15 0 5 7 9 15 9 22 0 18 17 -12
56 -22 26 -35 34 -60 34 -18 0 -33 -4 -33 -10 0 -5 13 -10 29 -10 29 0 49 -14
33 -24 -14 -8 -92 18 -92 32 0 7 -5 10 -10 7 -6 -4 -8 -10 -6 -14 3 -4 1 -13
-3 -20 -7 -10 -12 -10 -28 0 -18 11 -19 14 -6 40 8 15 26 37 41 48 25 19 26
20 6 21 -12 0 -24 -7 -28 -15 -3 -8 -15 -15 -27 -15 -14 0 -19 5 -16 14 3 8
-1 17 -9 20 -8 3 -14 1 -14 -4 0 -6 -15 -10 -32 -10 -22 0 -29 3 -20 9 10 6 7
10 -12 13 -18 4 -35 -2 -54 -18 -30 -27 -35 -28 -78 -15 -17 5 -37 5 -45 1 -8
-6 5 -11 39 -16 29 -3 52 -10 52 -14 0 -4 12 -7 28 -7 15 0 37 -4 49 -8 18 -6
21 -4 16 14 -4 18 -1 21 23 21 26 0 27 -1 9 -14 -19 -14 -19 -15 5 -36 l25
-21 -37 3 c-20 2 -35 1 -32 -3 10 -17 -14 -16 -28 1 -12 13 -24 17 -40 12 -21
-6 -21 -7 -3 -10 38 -7 39 -21 1 -18 -20 2 -39 6 -43 10 -9 9 -73 8 -73 -2 0
-4 7 -17 15 -28 8 -12 12 -24 8 -27 -8 -8 -62 3 -95 20 -20 10 -28 10 -28 2 0
-7 -8 -18 -17 -25 -16 -12 -15 -13 14 -14 26 0 31 -3 26 -16 -5 -14 -3 -14 15
-3 15 10 25 10 32 3 7 -7 26 -8 50 -4 39 7 50 5 50 -12 0 -5 -8 -7 -17 -4 -10
3 -35 1 -56 -3 -40 -10 -97 3 -97 20 0 5 -7 9 -16 9 -9 0 -14 -6 -11 -12 7
-23 -23 -36 -57 -25 -78 25 -80 27 -61 41 23 16 11 36 -21 36 -17 0 -24 -5
-24 -19 0 -33 -21 -35 -49 -3 -33 35 -87 51 -107 31 -11 -12 -7 -14 26 -14 47
-1 57 -9 38 -28 -11 -12 -16 -12 -26 -1 -9 10 -19 11 -39 3 -22 -8 -28 -7 -36
7 -7 12 -11 13 -17 4 -8 -13 -30 -5 -30 11 0 6 4 7 10 4 12 -7 50 12 50 25 0
6 -24 7 -60 3 -55 -5 -63 -4 -86 18 -13 12 -22 29 -20 36 3 7 -2 13 -10 13
-18 0 -77 31 -82 43 -2 4 -12 7 -22 7 -9 0 -23 7 -30 15 -7 8 -19 15 -26 15
-12 0 -18 12 -16 31 1 4 -8 5 -18 2 -11 -3 -20 -1 -20 5 0 6 -8 13 -17 16 -10
3 -29 16 -43 29 -14 13 -41 32 -60 42 -32 18 -146 101 -180 132 -56 49 -230
163 -251 163 -8 0 -22 7 -33 15 -10 8 -38 17 -61 21 -36 5 -54 17 -119 85 -51
51 -103 93 -151 119 -40 22 -77 46 -83 53 -6 7 -16 46 -22 86 -15 94 -92 328
-124 375 -28 42 -79 80 -122 90 l-29 8 22 -24 c58 -62 69 -165 27 -255 -23
-48 -43 -80 -124 -197 -8 -11 -26 -35 -40 -52 -14 -17 -37 -47 -52 -65 -15
-19 -46 -56 -68 -84 -22 -27 -53 -65 -68 -84 -56 -70 -153 -171 -204 -213 -18
-15 -49 -41 -69 -58 -20 -16 -41 -30 -47 -30 -5 0 -15 -7 -22 -15 -14 -17
-122 -69 -215 -104 -52 -20 -81 -54 -114 -133 -17 -43 -31 -84 -31 -93 0 -8
-4 -15 -9 -15 -12 0 -22 57 -31 188 -4 63 -13 119 -19 125 -16 16 -13 37 7 44
28 10 95 58 127 92 17 17 34 31 38 31 8 0 67 39 77 51 3 3 28 21 55 39 28 19
51 37 53 42 2 4 9 8 15 9 7 0 31 15 54 32 23 18 73 54 110 81 37 28 70 52 73
56 3 3 61 53 130 111 69 58 159 142 200 186 72 76 140 182 140 217 0 22 -51
74 -75 78 -18 3 -20 -3 -21 -47 -1 -60 -12 -125 -22 -125 -4 0 -18 -17 -32
-37 -14 -20 -36 -48 -49 -63 -13 -14 -35 -42 -49 -62 -14 -22 -33 -38 -44 -38
-11 0 -17 -4 -13 -9 3 -5 -4 -12 -15 -16 -11 -4 -17 -11 -14 -17 4 -6 3 -8 -3
-5 -16 10 -95 -34 -89 -49 3 -8 -1 -14 -9 -14 -15 0 -86 -39 -96 -52 -3 -5
-13 -6 -22 -2 -9 3 -17 2 -17 -3 0 -15 -83 -52 -115 -51 -17 1 -40 -4 -51 -10
-12 -7 -26 -7 -35 -1 -25 15 -39 10 -39 -16 0 -26 -7 -29 -33 -19 -13 5 -12 9
5 26 14 14 18 28 15 47 -3 15 -2 33 4 41 7 12 9 11 9 -5 0 -18 1 -18 18 -2 15
15 15 19 2 27 -12 8 -11 13 8 33 12 13 22 31 22 40 0 9 6 17 13 17 8 0 22 9
31 19 14 15 15 24 6 40 -6 12 -16 21 -22 21 -7 0 -7 4 -1 13 6 6 13 26 16 43
4 23 1 33 -13 42 -16 10 -25 5 -64 -33 -24 -25 -52 -45 -60 -45 -9 0 -16 -7
-16 -15 0 -8 -5 -15 -10 -15 -15 0 -1 49 29 98 37 61 48 81 69 132 10 25 27
63 36 85 53 118 107 310 121 425 18 153 57 287 96 329 11 11 19 30 19 41 0 27
90 116 150 148 119 63 159 94 174 133 9 22 16 56 16 76 0 34 -35 121 -62 153
-19 22 -130 72 -139 63 -4 -4 -9 -25 -11 -46 -2 -40 -28 -72 -50 -64 -47 16
-63 -50 -28 -116 11 -20 20 -52 20 -70 0 -34 -31 -100 -66 -140 -12 -13 -24
-40 -28 -60 -4 -21 -11 -37 -15 -37 -5 0 -11 -8 -14 -17 -3 -10 -15 -43 -27
-73 -34 -86 -57 -188 -63 -280 -6 -76 -14 -117 -60 -279 -16 -60 -37 -66 -30
-9 4 38 3 41 -9 23 -31 -49 -40 -105 -16 -105 6 0 7 8 3 18 -5 13 -4 14 6 5
10 -10 9 -16 -3 -30 -19 -22 -53 -86 -50 -95 1 -4 -12 -32 -28 -62 -17 -30
-30 -61 -30 -68 0 -8 -9 -23 -20 -33 -11 -10 -20 -22 -20 -27 0 -5 -11 -21
-25 -36 -14 -15 -25 -31 -25 -35 0 -5 -6 -15 -12 -22 -7 -8 -31 -33 -53 -58
-22 -24 -56 -61 -76 -83 -19 -21 -38 -47 -42 -57 -4 -10 -17 -17 -31 -17 -15
0 -25 -7 -29 -20 -3 -13 -10 -18 -21 -14 -12 5 -15 2 -10 -11 6 -14 3 -16 -14
-11 -12 4 -34 1 -50 -8 -16 -8 -39 -12 -51 -9 -13 3 -29 -1 -41 -12 -12 -10
-20 -13 -20 -7 0 16 -27 15 -33 0 -4 -10 -6 -10 -6 0 -1 7 -5 11 -11 7 -5 -3
-7 -12 -3 -21 3 -8 2 -14 -3 -13 -26 4 -36 -2 -31 -21 6 -24 -5 -32 -47 -35
-17 -1 -44 -8 -61 -15 -16 -7 -34 -12 -40 -10 -5 2 -32 4 -60 5 -41 1 -49 4
-47 18 2 12 -4 17 -22 17 -13 0 -27 6 -30 13 -5 9 -7 10 -12 0 -7 -17 -34 -17
-34 0 0 9 -3 8 -9 -2 -14 -22 -31 20 -31 78 0 44 -4 53 -30 73 -17 12 -30 28
-30 36 0 11 -23 70 -35 89 -1 2 -16 -1 -33 -6 -20 -6 -32 -6 -32 0 0 5 -11 14
-25 19 -34 13 -32 23 15 74 42 46 50 62 25 52 -24 -9 -31 23 -9 39 11 8 24 13
29 11 6 -1 15 3 20 10 6 7 22 16 36 19 20 5 28 1 37 -17 6 -13 11 -17 11 -11
1 14 65 58 122 84 20 9 46 27 58 40 l22 24 44 -24 c25 -13 45 -30 45 -37 0
-16 26 -19 35 -3 11 17 -22 73 -66 115 -23 21 -65 63 -92 91 -49 51 -52 53
-101 51 -32 -1 -55 -8 -62 -17 -10 -13 -14 -13 -28 -2 -14 12 -16 10 -16 -14
0 -21 -3 -25 -13 -17 -7 6 -31 9 -55 6 -23 -2 -42 0 -42 5 0 12 -220 5 -254
-8 -32 -13 -69 -5 -63 12 2 7 24 14 49 17 25 3 53 12 61 19 9 7 30 11 48 9 26
-2 37 3 60 32 16 19 31 51 34 70 l6 35 -17 -30 c-30 -56 -68 -77 -142 -80 -66
-3 -76 -4 -118 -18 -31 -11 -66 -64 -62 -95 3 -23 -1 -27 -24 -30 -16 -2 -28
1 -28 7 0 5 -21 13 -47 17 -31 5 -57 16 -78 35 -36 34 -47 19 -14 -18 36 -39
96 -63 162 -63 46 0 59 -4 63 -17 16 -48 87 -186 110 -212 24 -28 25 -33 13
-66 -12 -31 -11 -43 5 -88 10 -29 31 -71 47 -95 l29 -42 -26 -80 c-21 -64 -31
-81 -48 -84 -20 -4 -128 -19 -251 -36 -59 -8 -216 -60 -239 -79 -6 -5 -63 -32
-126 -61 -63 -28 -137 -69 -165 -90 -27 -21 -79 -52 -115 -70 -36 -18 -92 -57
-124 -87 -32 -30 -82 -66 -110 -79 -106 -50 -273 -190 -327 -273 -32 -50 -37
-82 -14 -101 19 -16 19 -36 1 -43 -14 -6 -65 -76 -92 -128 -10 -20 -13 -41 -9
-60 6 -25 3 -31 -12 -35 -11 -3 -26 -21 -34 -41 -16 -41 -39 -56 -73 -47 -16
4 -41 -2 -73 -19 -26 -13 -60 -29 -75 -35 -16 -7 -28 -19 -28 -27 0 -21 29
-31 49 -17 9 7 27 17 41 24 14 7 33 18 43 27 9 8 20 11 24 7 7 -7 -49 -66 -64
-66 -4 0 -18 -8 -30 -18 -26 -20 -22 -62 6 -62 22 0 71 23 71 33 0 4 6 7 13 7
6 0 -5 -16 -25 -35 -21 -18 -38 -38 -38 -42 0 -16 31 -53 44 -53 7 0 23 -23
34 -51 13 -31 29 -53 41 -56 20 -5 51 -58 51 -88 0 -9 9 -19 20 -22 23 -6 60
-70 60 -103 0 -13 9 -24 25 -30 15 -6 25 -17 25 -29 0 -11 5 -23 10 -26 6 -3
7 -17 4 -31 -5 -19 -2 -24 14 -24 21 0 38 -32 28 -49 -3 -5 -22 -12 -42 -16
-40 -7 -84 -32 -84 -46 0 -5 13 -9 29 -9 21 0 32 -6 36 -20 5 -17 12 -20 40
-14 36 6 54 -8 36 -30 -6 -7 -16 -39 -22 -71 -6 -31 -26 -92 -45 -135 -19 -43
-34 -85 -34 -93 0 -22 -39 -67 -59 -67 -10 0 -21 -3 -25 -7 -10 -10 -108 -30
-214 -44 -92 -12 -165 1 -186 33 -6 10 -19 18 -29 18 -12 0 -23 11 -30 29 -6
16 -21 34 -34 40 -13 6 -30 26 -38 44 -7 17 -27 45 -44 61 -17 17 -31 37 -31
45 0 8 -11 26 -24 40 -31 34 -156 218 -156 231 0 13 -81 120 -91 120 -5 0 -9
9 -9 20 0 12 -4 26 -10 33 -5 7 -23 28 -40 48 -16 20 -30 43 -30 51 0 8 -18
33 -40 56 -22 22 -40 46 -40 51 0 6 -14 26 -30 44 -17 19 -30 38 -30 41 0 15
-53 76 -65 76 -23 0 -134 -89 -165 -132 -34 -47 -134 -118 -166 -118 -12 0
-27 7 -34 15 -12 14 -27 18 -122 30 -48 6 -68 25 -27 25 18 0 20 4 14 28 -5
15 -9 38 -9 52 -1 21 3 25 29 25 25 0 33 -7 50 -40 24 -47 32 -55 63 -55 30 0
38 24 18 55 -21 32 -20 51 4 82 11 14 20 33 20 41 0 8 13 42 29 76 44 94 44
98 16 141 -23 33 -25 44 -20 91 10 73 1 80 -46 42 l-40 -33 -20 25 c-34 45
-42 87 -34 181 6 77 4 90 -10 95 -9 4 -27 2 -39 -4 -20 -9 -24 -21 -31 -79
-12 -116 -15 -121 -76 -143 -36 -13 -117 -75 -109 -83 3 -3 45 -1 94 4 102 10
107 8 104 -57 -3 -71 24 -84 74 -34 36 37 43 37 64 5 13 -21 16 -41 11 -99 -6
-79 -14 -99 -58 -134 l-28 -23 -30 33 c-17 18 -33 48 -37 66 -7 36 -11 38 -60
17 -32 -13 -38 -13 -78 7 -30 14 -52 19 -70 14 -39 -10 -27 -29 25 -42 71 -18
107 -41 128 -83 l20 -38 -24 -22 c-14 -11 -25 -27 -25 -35 0 -33 -27 -38 -89
-16 -56 20 -62 20 -91 5 -40 -21 -34 -41 12 -37 22 2 39 -2 48 -12 16 -20 34
-20 50 -1 9 11 17 12 32 4 15 -8 17 -13 7 -25 -6 -8 -22 -14 -35 -14 -12 0
-26 -5 -30 -11 -3 -6 -25 -19 -48 -30 -22 -10 -49 -24 -58 -31 -15 -11 -20 -9
-33 10 -23 32 -77 30 -104 -4 -22 -28 -27 -60 -12 -82 7 -11 9 -11 14 1 7 19
37 26 65 16 19 -7 21 -12 12 -28 -14 -27 -13 -31 11 -40 l22 -8 -21 -19 -22
-20 38 -2 c52 -3 95 -16 100 -30 2 -6 -25 -25 -60 -42 -35 -17 -74 -38 -88
-45 -14 -8 -37 -15 -52 -15 -15 0 -56 -14 -91 -30 -36 -17 -72 -30 -81 -30 -8
0 -18 -5 -22 -11 -12 -20 65 -1 132 31 34 17 74 30 90 30 66 0 106 13 117 37
15 33 50 39 114 19 67 -22 67 -41 -1 -68 -27 -10 -60 -27 -73 -38 -13 -10 -48
-24 -78 -30 -30 -6 -78 -24 -107 -40 -29 -16 -61 -30 -70 -30 -10 0 -18 -4
-18 -10 0 -15 73 -11 94 5 11 8 26 15 35 15 8 0 23 8 33 17 15 14 35 17 99 15
85 -2 119 8 119 36 0 22 34 43 57 35 32 -11 54 -36 48 -54 -5 -14 -1 -16 15
-12 11 3 20 0 20 -6 0 -7 -19 -11 -47 -10 -36 0 -43 3 -28 9 16 7 17 9 3 9 -9
1 -20 -3 -23 -9 -3 -5 -19 -10 -34 -10 -15 0 -41 -11 -57 -25 l-29 -25 24 0
c13 0 21 -3 17 -7 -9 -9 -164 -73 -194 -80 -35 -8 -24 -39 13 -35 17 1 44 3
62 2 22 0 36 6 43 20 6 12 21 20 35 20 27 0 75 -19 75 -30 0 -16 -35 -35 -98
-55 l-66 -20 -2 -48 c-3 -48 12 -77 47 -89 11 -5 12 -8 2 -19 -7 -7 -13 -23
-13 -36 0 -12 -5 -34 -12 -49 -11 -23 -10 -28 10 -44 18 -15 21 -24 15 -52 -3
-18 -13 -44 -21 -57 -14 -21 -14 -24 1 -33 11 -6 17 -22 17 -44 0 -28 -6 -38
-30 -52 -32 -18 -36 -27 -20 -37 17 -11 11 -43 -10 -50 -29 -9 -183 -3 -197 8
-18 13 -6 27 25 28 25 1 24 2 -8 11 -42 11 -60 32 -60 71 0 18 -4 27 -12 25
-7 -3 -12 -18 -13 -34 0 -28 -2 -29 -43 -28 -30 1 -48 7 -63 22 -13 14 -32 22
-54 22 -31 0 -35 3 -35 27 0 15 7 46 16 69 15 39 15 46 0 91 -9 27 -15 60 -15
73 3 39 -17 76 -55 105 -20 15 -36 35 -36 45 0 23 -65 80 -91 80 -11 0 -24 11
-31 25 -14 31 -67 65 -101 65 -14 0 -30 6 -34 14 -13 21 -49 36 -87 36 -19 0
-47 5 -61 12 -19 9 -38 8 -80 -2 -58 -14 -78 -9 -54 15 29 29 289 148 404 185
127 42 264 98 285 117 13 12 10 23 -25 89 -22 42 -51 85 -64 95 -24 19 -25 19
-45 1 -37 -33 -53 -33 -118 4 -70 40 -94 64 -137 144 -34 64 -45 110 -45 200
-1 75 11 70 -128 51 -52 -7 -93 -19 -123 -36 -40 -24 -54 -27 -147 -26 -261 0
-624 -7 -838 -18 -226 -11 -665 -27 -1425 -53 -198 -7 -697 -12 -1110 -13
-831 0 -803 -2 -945 67 -254 122 -418 244 -489 363 -30 49 -35 67 -37 133 -3
79 7 118 36 133 8 4 29 14 45 22 37 17 140 73 181 98 18 11 67 24 110 29 81
11 1624 31 1670 22 38 -7 57 -42 44 -78 -15 -39 -25 -44 -97 -44 -47 0 -70 -5
-97 -22 -41 -27 -44 -54 -4 -50 21 2 28 -3 36 -28 7 -17 22 -34 36 -40 15 -5
26 -14 26 -19 0 -17 64 -46 140 -64 41 -10 91 -22 110 -27 19 -4 55 -11 80
-15 46 -7 149 -29 210 -45 21 -6 39 -18 45 -32 7 -15 25 -26 55 -34 60 -17
220 -44 254 -44 31 0 89 -37 81 -51 -8 -12 -60 -12 -122 0 -26 5 -91 16 -143
24 -52 9 -137 22 -189 31 -52 8 -98 13 -103 10 -12 -8 -10 -48 5 -68 13 -17
163 -47 382 -75 98 -13 44 -20 608 78 251 44 308 59 337 86 14 13 45 29 70 35
25 7 56 23 69 36 23 23 29 24 185 26 301 3 375 -2 451 -27 165 -55 295 -80
295 -57 0 13 -43 49 -67 56 -12 4 -37 27 -57 51 -35 42 -39 44 -106 51 -69 7
-70 7 -90 48 -11 22 -36 52 -55 66 -19 14 -58 59 -86 100 -29 41 -66 91 -83
111 -17 20 -39 50 -49 68 -13 25 -22 32 -38 28 -17 -5 -19 -2 -15 21 10 56 19
71 47 82 16 7 33 19 38 28 11 19 105 87 156 112 22 10 58 32 80 48 l40 28 2
314 c1 173 4 335 7 360 2 25 8 177 12 338 6 259 9 292 23 292 30 0 59 -29 65
-65 7 -33 11 -38 108 -106 5 -3 13 -32 18 -64 6 -37 18 -67 32 -83 26 -28 99
-62 132 -62 28 0 46 -18 46 -45 0 -25 -26 -95 -79 -208 -23 -49 -41 -91 -41
-95 0 -4 -6 -18 -13 -32 -7 -14 -21 -47 -31 -75 -42 -113 -122 -297 -173 -399
l-55 -108 20 -21 c18 -17 25 -19 46 -9 33 15 37 7 46 -82 4 -39 22 -113 41
-165 32 -86 39 -98 108 -165 97 -94 91 -88 136 -116 21 -13 47 -32 57 -42 28
-28 63 -32 112 -13 53 20 90 16 143 -18 21 -14 67 -41 103 -61 36 -20 80 -48
98 -61 28 -20 40 -22 92 -18 57 5 90 -5 90 -27 0 -15 -89 -60 -119 -60 -16 0
-33 -5 -36 -11 -13 -19 5 -59 33 -73 24 -12 31 -12 55 1 46 23 77 13 112 -37
29 -42 35 -45 81 -48 64 -3 92 -18 115 -63 10 -21 27 -40 36 -42 50 -14 114
-17 134 -7 21 12 21 12 -15 49 -45 46 -45 67 -1 158 19 40 35 79 35 86 0 8 7
20 15 27 8 6 17 21 21 32 9 30 47 83 111 155 32 36 58 70 58 77 0 12 -30 12
-120 -1 -68 -10 -85 -18 -85 -39 0 -8 -4 -14 -8 -14 -12 0 -78 -97 -97 -142
-8 -21 -20 -38 -25 -38 -14 0 -50 60 -50 83 0 10 11 33 24 50 42 57 42 60 5
52 -19 -4 -43 -16 -54 -26 -11 -10 -34 -19 -50 -20 -46 -2 -246 27 -390 56
-102 21 -145 25 -203 20 l-72 -6 -100 98 c-113 112 -118 125 -72 200 38 63 92
123 109 123 8 0 28 -9 44 -21 42 -30 63 -19 54 29 -12 59 -8 160 8 190 7 15
39 77 70 138 39 76 63 140 78 205 27 116 50 172 81 193 13 10 73 45 133 79
113 65 248 152 299 195 37 30 76 24 111 -15 51 -58 135 -193 141 -225 3 -18
14 -56 24 -83 29 -81 73 -327 86 -480 3 -38 10 -101 15 -140 4 -38 14 -131 20
-205 6 -74 15 -139 19 -144 5 -5 35 -14 66 -20 51 -10 63 -9 93 6 42 21 67 22
101 3 17 -9 41 -12 73 -8 37 5 52 2 67 -12 23 -21 58 -15 94 18 l25 22 -14
275 c-19 382 -63 662 -130 827 -38 94 -152 261 -262 383 -38 42 -81 96 -97
120 -15 25 -46 57 -67 72 -69 49 -86 99 -64 195 12 55 -1 80 -54 107 -27 14
-51 32 -55 41 -3 9 -2 66 2 128 5 62 7 207 6 322 -2 185 -4 215 -22 256 -11
25 -43 125 -71 222 -55 194 -66 220 -119 287 -73 93 -134 130 -217 130 -30 0
-99 7 -153 17 -126 21 -411 20 -474 -2 -24 -8 -59 -15 -79 -15 -20 0 -62 -13
-95 -30 -41 -21 -74 -30 -107 -30 -90 0 -140 -39 -166 -130 -7 -25 -26 -61
-41 -80 -15 -19 -33 -46 -40 -59 -6 -13 -27 -44 -46 -68 -42 -56 -45 -100 -8
-140 22 -24 24 -32 17 -68 -4 -22 -6 -108 -4 -191 l3 -150 -27 -32 c-24 -28
-26 -38 -21 -77 5 -31 13 -46 27 -50 10 -4 19 -10 19 -14 0 -4 22 -18 49 -30
50 -24 61 -41 101 -149 7 -18 21 -37 31 -43 19 -10 26 -53 11 -63 -4 -2 -55
-7 -112 -10 l-105 -5 2 -35 c2 -29 -3 -39 -28 -58 -16 -13 -47 -38 -68 -55
-21 -18 -43 -33 -48 -33 -6 0 -25 -8 -44 -17 -45 -22 -126 -28 -189 -13 -46
11 -53 16 -67 51 -12 30 -21 39 -39 39 -13 0 -24 -5 -24 -11 0 -5 -4 -8 -9 -5
-5 4 -12 -7 -16 -23 -5 -22 -16 -33 -46 -45 -47 -19 -100 -21 -117 -4 -15 15
-16 100 -2 165 11 54 38 277 50 423 10 121 18 150 36 143 8 -3 14 0 14 6 0 6
-6 11 -14 11 -13 0 -33 113 -29 168 2 26 -4 28 -29 5 -18 -16 -20 -15 -48 15
-16 18 -24 32 -17 32 9 0 9 2 1 8 -19 11 -36 91 -39 177 -3 113 -4 113 -16 92
-6 -10 -12 -40 -14 -65 -2 -26 -6 -65 -9 -87 -2 -22 -9 -157 -15 -300 -23
-542 -41 -679 -106 -805 -22 -43 -61 -67 -62 -38 0 7 -8 57 -17 110 -9 54 -16
114 -16 133 0 43 -25 48 -42 8 -7 -16 -17 -35 -24 -43 -15 -19 -64 -156 -64
-179 0 -10 -7 -24 -15 -31 -8 -7 -15 -22 -15 -34 0 -20 178 -296 221 -342 10
-11 19 -26 19 -32 0 -6 17 -40 38 -74 79 -129 97 -177 97 -254 0 -125 -25
-143 -141 -104 -80 26 -180 26 -214 0 -14 -11 -29 -20 -33 -20 -11 0 -47 -37
-97 -100 -24 -30 -77 -89 -117 -131 -67 -70 -73 -80 -73 -118 0 -36 -4 -44
-37 -67 -37 -25 -125 -82 -147 -95 -6 -4 -42 -12 -79 -17 -89 -14 -155 2 -203
49 -28 28 -43 34 -82 35 -26 1 -50 2 -54 3 -10 2 -98 139 -117 184 -26 61 -34
116 -20 133 6 8 25 14 40 14 38 0 137 35 161 56 22 20 48 71 48 93 0 32 40
171 61 218 16 33 22 65 21 103 -1 36 6 70 18 97 11 23 25 64 30 90 14 61 65
151 104 183 17 14 63 58 102 98 84 85 90 86 229 45 104 -30 182 -40 198 -24 7
7 3 21 -16 48 -29 44 -47 102 -47 156 0 31 -7 45 -31 68 -17 16 -35 29 -39 29
-12 0 0 37 16 51 10 8 11 16 3 30 -12 24 -36 24 -90 -1 -60 -27 -79 -25 -152
15 -86 47 -101 42 -92 -37 9 -72 -3 -94 -79 -142 -59 -38 -96 -82 -96 -116 0
-23 -51 -80 -70 -80 -6 0 -26 7 -45 14 -38 16 -43 37 -25 106 37 142 53 197
62 207 5 7 25 43 43 80 32 66 76 117 119 138 31 15 31 51 2 96 -39 58 -90 49
-110 -18 -4 -13 -18 -26 -31 -29 -13 -3 -44 -28 -70 -55 -25 -27 -57 -52 -71
-55 -13 -3 -24 -11 -24 -18 0 -6 -11 -21 -25 -34 -22 -21 -30 -23 -82 -16 -32
4 -60 6 -62 6 -2 -1 -5 -41 -7 -89 -1 -49 -7 -101 -13 -116 -15 -39 -14 -69 4
-103 42 -81 -9 -152 -98 -137 -49 8 -83 71 -74 138 11 74 33 104 95 125 71 23
75 28 56 75 -12 32 -26 45 -65 64 -27 14 -49 31 -49 38 0 18 -47 110 -60 118
-5 3 -10 19 -10 35 0 52 -49 158 -87 189 -34 28 -35 31 -28 77 8 56 21 94 33
94 4 0 31 -22 59 -49 l52 -50 81 40 c61 31 99 42 160 49 45 5 85 12 91 15 9 6
33 2 159 -27 90 -21 175 -73 261 -157 8 -9 48 -45 89 -81 40 -36 89 -82 108
-102 40 -43 52 -47 52 -18 0 12 -24 44 -55 73 -53 52 -105 141 -105 183 0 25
-15 44 -57 73 -18 12 -44 46 -58 76 l-27 54 -29 -14 c-40 -21 -63 -19 -98 10
l-30 26 -38 -24 c-21 -14 -59 -30 -85 -37 -43 -11 -49 -11 -77 10 -29 20 -31
25 -31 88 0 80 22 131 84 193 55 54 72 60 119 44 44 -15 50 -9 61 65 14 91 25
117 55 130 22 9 34 9 51 0 12 -7 26 -8 30 -3 8 8 27 234 56 658 8 127 20 286
26 355 5 69 12 153 15 188 l5 62 -3226 0 -3226 0 0 -4260z m8427 2689 c25 1
37 -5 57 -31 26 -34 76 -171 76 -208 0 -11 11 -42 24 -68 55 -110 42 -141 -67
-162 -72 -13 -125 -8 -173 18 -17 9 -50 27 -74 40 l-42 23 22 24 c13 13 25 24
29 23 25 -3 31 6 31 47 0 36 -6 50 -30 75 -16 17 -30 35 -30 40 0 5 -20 23
-45 40 -25 17 -45 35 -45 40 0 45 142 116 205 103 17 -3 44 -5 62 -4z m6893
-340 c0 -5 -4 -9 -10 -9 -5 0 -10 7 -10 16 0 8 5 12 10 9 6 -3 10 -10 10 -16z
m-6667 -224 c73 -54 88 -143 40 -235 -38 -73 -68 -93 -138 -93 -31 0 -60 4
-63 9 -4 5 -16 14 -27 21 -11 6 -19 16 -17 22 1 6 -7 29 -18 51 -11 21 -20 44
-20 49 0 18 45 80 62 86 21 7 73 61 73 75 0 29 76 40 108 15z m-2638 -455
c-10 -37 -24 -50 -56 -50 -37 0 -42 10 -27 56 22 66 99 60 83 -6z m2522 -6
c-3 -3 -12 -4 -19 -1 -8 3 -5 6 6 6 11 1 17 -2 13 -5z m-2157 -55 c0 -22 -21
-48 -55 -69 -31 -19 -39 -20 -64 -9 -36 16 -31 37 17 66 39 23 102 31 102 12z
m-175 -189 c22 -24 29 -14 -102 -132 -81 -74 -108 -86 -124 -57 -15 29 -5 49
59 115 95 98 131 114 167 74z m-2257 -42 c-5 -32 -28 -35 -28 -4 0 17 5 26 16
26 10 0 14 -7 12 -22z m9652 -108 c0 -5 -4 -10 -10 -10 -5 0 -10 5 -10 10 0 6
5 10 10 10 6 0 10 -4 10 -10z m107 -84 c-11 -33 -297 -98 -297 -67 0 6 9 11
20 11 11 0 23 6 26 14 3 7 30 19 60 26 30 7 57 16 59 19 6 11 136 8 132 -3z
m-4969 -39 c25 -23 27 -43 10 -99 -10 -35 -10 -41 5 -50 44 -24 -8 -103 -95
-145 -21 -10 -38 -24 -38 -31 0 -7 16 -29 37 -49 28 -29 45 -37 77 -39 23 -2
43 -3 46 -3 2 -1 -1 -6 -8 -13 -36 -36 11 -37 80 -3 27 14 56 25 64 25 22 0
21 -54 -1 -105 -23 -55 -52 -139 -64 -190 -18 -75 -36 -105 -106 -182 -36 -39
-65 -76 -65 -82 0 -40 -81 -151 -136 -187 -34 -23 -52 -12 -81 53 -14 32 -35
65 -46 75 -41 32 -33 217 14 323 10 21 16 42 13 46 -2 4 16 26 41 50 25 24 45
49 45 56 0 23 -28 13 -53 -18 -26 -33 -57 -35 -57 -4 0 17 89 252 118 312 11
21 41 91 68 156 59 143 74 155 132 104z m-4919 -48 c41 -14 51 -35 51 -103 0
-64 -16 -80 -61 -64 -19 7 -35 25 -53 64 -31 65 -30 58 -10 89 18 28 27 30 73
14z m10794 -239 c-3 -11 -9 -23 -14 -26 -5 -3 -9 -12 -9 -20 0 -9 -38 -55 -85
-102 -47 -48 -85 -82 -85 -76 0 6 8 19 18 30 90 100 111 128 105 138 -3 6 -3
8 2 4 9 -8 24 6 49 45 22 32 26 34 19 7z m-11106 -42 c7 -6 13 -23 13 -39 0
-21 -7 -32 -29 -44 -31 -16 -54 -12 -83 13 -26 22 -22 53 9 78 28 22 57 20 90
-8z m1764 -78 c23 -13 27 -78 5 -86 -13 -5 -76 21 -76 30 0 3 -3 11 -6 19 -6
17 21 47 42 47 9 0 24 -5 35 -10z m8323 -26 c3 -8 2 -12 -4 -9 -6 3 -10 10
-10 16 0 14 7 11 14 -7z m-9349 -94 c21 -20 25 -31 21 -55 -4 -16 -13 -35 -21
-41 -8 -6 -64 -12 -124 -13 l-110 -2 -40 40 c-47 47 -50 63 -18 86 18 13 44
16 144 13 114 -3 123 -5 148 -28z m1129 -31 c40 -58 58 -110 45 -125 -6 -8
-19 -14 -28 -14 -9 0 -21 -4 -27 -10 -17 -17 -86 63 -94 107 -9 56 4 80 46 79
27 -1 39 -9 58 -37z m9036 27 c0 -3 -4 -8 -10 -11 -5 -3 -10 -1 -10 4 0 6 5
11 10 11 6 0 10 -2 10 -4z m-7118 -98 c13 -18 22 -33 20 -33 -2 0 0 -9 4 -19
8 -21 -12 -107 -27 -117 -18 -11 1 -34 44 -51 50 -21 81 -22 142 -6 42 11 50
10 88 -9 23 -12 61 -27 84 -33 41 -10 63 -32 63 -64 0 -9 -29 -29 -72 -49 -40
-19 -80 -44 -88 -57 -8 -13 -31 -42 -50 -65 -19 -24 -54 -68 -78 -100 -48 -63
-96 -90 -135 -76 -24 9 -37 29 -37 56 0 8 26 40 58 73 31 32 70 84 85 115 16
31 33 59 38 62 5 4 9 15 9 27 0 17 -4 19 -27 13 -16 -3 -35 -13 -43 -21 -22
-21 -76 -110 -106 -174 -49 -103 -131 -138 -200 -85 -18 14 -41 25 -51 25 -30
0 -55 24 -55 52 0 24 -4 26 -34 25 -39 -2 -40 -4 -18 -35 17 -25 13 -27 -61
-22 -49 2 -65 15 -42 32 9 7 19 27 21 43 4 34 24 87 25 67 1 -9 8 -11 23 -6
56 17 68 72 24 108 -25 20 -26 23 -15 56 14 43 37 70 58 70 23 1 54 27 46 39
-3 6 -4 20 0 30 5 16 19 19 109 23 101 3 104 4 135 36 27 26 31 35 21 47 -15
18 -41 8 -33 -12 4 -11 2 -14 -5 -9 -18 11 -16 67 2 60 8 -3 17 -1 21 5 12 20
33 11 57 -21z m1038 -215 c-1 -10 -7 -29 -15 -43 -12 -23 -14 -23 -21 -7 -8
21 10 67 26 67 5 0 10 -8 10 -17z m-3305 -63 c124 -22 230 -23 415 -2 87 10
104 2 115 -56 4 -20 12 -43 17 -50 6 -7 8 -16 4 -19 -23 -23 -1264 -25 -1323
-2 -24 9 -29 25 -13 49 7 11 42 16 152 20 137 6 146 8 219 42 41 20 84 38 95
41 35 11 197 -1 319 -23z m-1400 4 c111 -5 219 -18 280 -34 22 -5 73 -15 113
-21 50 -8 82 -18 99 -34 l27 -22 -27 -18 c-24 -15 -47 -17 -199 -13 -161 4
-179 7 -263 36 -125 42 -224 86 -243 107 -16 16 -14 17 48 10 36 -3 110 -9
165 -11z m15505 -68 c0 -3 -4 -8 -10 -11 -5 -3 -10 -1 -10 4 0 6 5 11 10 11 6
0 10 -2 10 -4z m40 -26 c0 -5 -7 -10 -16 -10 -8 0 -12 5 -9 10 3 6 10 10 16
10 5 0 9 -4 9 -10z m-2 -98 c2 -7 -2 -10 -12 -6 -9 3 -16 11 -16 16 0 13 23 5
28 -10z m-5406 -15 c9 -7 20 -25 23 -39 5 -19 11 -25 22 -21 20 8 43 -22 43
-54 0 -13 -7 -26 -15 -29 -23 -9 -93 36 -116 75 -17 29 -19 38 -8 58 14 26 26
28 51 10z m5331 -4 c9 -9 -13 -34 -24 -27 -14 8 -11 34 4 34 8 0 17 -3 20 -7z
m52 -23 c-27 -12 -35 -12 -35 0 0 6 12 10 28 9 24 0 25 -1 7 -9z m-5630 -120
c-19 -41 -56 -73 -48 -39 3 10 9 19 13 19 9 0 39 88 42 122 1 13 3 3 5 -21 3
-28 -2 -59 -12 -81z m5530 101 c-3 -6 -14 -10 -23 -10 -15 1 -15 2 1 6 9 2 17
9 17 15 0 6 3 9 6 5 3 -3 3 -10 -1 -16z m0 -51 c3 -11 15 -20 25 -20 23 0 50
-10 50 -19 0 -3 -21 -6 -47 -6 -40 1 -48 4 -48 20 0 10 -6 20 -13 23 -19 6
-14 22 7 22 11 0 23 -9 26 -20z m-5155 -71 c0 -5 -4 -9 -10 -9 -5 0 -10 7 -10
16 0 8 5 12 10 9 6 -3 10 -10 10 -16z m310 17 c0 -2 -7 -20 -15 -39 -24 -57
-86 -62 -120 -10 -17 25 -17 27 1 40 15 11 134 20 134 9z m-481 -40 c16 -29 8
-46 -19 -39 -14 4 -20 0 -20 -12 0 -9 -20 -43 -45 -75 -25 -32 -45 -60 -45
-63 0 -2 -17 -36 -38 -74 -38 -69 -72 -157 -72 -188 0 -8 -12 -38 -26 -66 -27
-53 -28 -76 -1 -36 8 13 44 55 79 93 118 131 196 226 241 294 20 30 61 81 90
113 43 45 60 57 83 56 16 0 23 -3 16 -6 -10 -4 -10 -8 2 -17 14 -10 12 -20
-16 -91 -81 -201 -233 -460 -263 -448 -30 11 -65 -6 -65 -32 0 -13 5 -27 10
-30 18 -11 -10 -36 -31 -30 -11 4 -19 2 -19 -4 0 -6 5 -11 10 -11 6 0 10 -4
10 -10 0 -16 -95 -107 -132 -126 -38 -21 -180 -84 -188 -84 -3 0 -5 69 -5 152
0 84 -6 209 -14 277 l-15 124 40 36 c87 79 91 81 148 81 30 0 57 4 61 9 3 5
19 12 35 16 18 4 30 13 30 23 0 12 3 13 12 4 8 -8 18 2 40 45 22 40 27 58 19
66 -8 8 -2 20 22 43 40 39 50 40 66 10z m5391 16 c0 -5 -13 -7 -30 -4 -16 2
-30 6 -30 8 0 2 14 4 30 4 17 0 30 -4 30 -8z m-1167 -46 c12 4 25 12 29 18 8
12 13 8 22 -19 5 -18 1 -20 -32 -20 -22 0 -37 -5 -38 -12 -4 -34 -6 -36 -16
-13 -15 34 -16 43 -4 59 9 12 12 11 14 -3 3 -12 9 -15 25 -10z m121 5 c3 -4
17 -6 32 -3 23 4 25 2 19 -17 -4 -13 -2 -21 5 -21 6 0 9 -4 6 -9 -3 -5 6 -12
21 -16 25 -6 26 -8 10 -17 -10 -5 -26 -7 -35 -3 -31 12 -102 23 -102 15 0 -17
-57 -8 -69 12 -12 19 -11 19 18 13 29 -6 32 -4 37 24 5 24 12 31 30 31 12 0
25 -4 28 -9z m970 -2 c-3 -5 -12 -9 -19 -9 -9 0 -12 -6 -9 -15 4 -10 -2 -18
-17 -24 -31 -11 -32 -10 -14 26 11 22 22 31 40 31 14 0 22 -4 19 -9z m-5614
-42 c-38 -36 -150 -102 -150 -89 0 12 22 32 37 32 16 0 80 44 110 76 13 14 27
23 31 20 3 -4 -9 -22 -28 -39z m5653 36 c4 -3 1 -13 -6 -21 -10 -13 -9 -15 4
-10 12 5 15 1 11 -18 -2 -13 -8 -24 -13 -24 -5 0 -6 7 -3 15 4 10 0 15 -13 15
-29 0 -35 11 -15 31 19 20 26 22 35 12z m-4693 -32 c0 -15 -96 -140 -151 -196
-54 -56 -59 -66 -28 -58 36 10 -72 -119 -138 -163 -52 -36 -92 -70 -180 -155
-33 -31 -51 -78 -87 -234 -9 -38 -30 -98 -47 -132 -31 -65 -31 -83 1 -83 10 0
21 -7 24 -16 9 -24 -3 -32 -18 -11 -16 21 -26 22 -26 1 0 -11 -6 -14 -20 -9
-17 5 -23 0 -35 -29 -19 -44 -19 -46 0 -46 8 0 15 5 15 10 0 6 11 10 25 10 26
0 33 -14 14 -26 -6 -3 -9 -14 -6 -24 2 -9 -4 -28 -14 -41 -16 -21 -21 -22 -39
-11 -17 10 -20 10 -20 -5 0 -16 -1 -16 -17 -1 -15 16 -17 15 -34 -6 -10 -12
-26 -43 -35 -67 -21 -52 -30 -59 -64 -52 -23 4 -28 1 -37 -34 -6 -21 -14 -54
-18 -73 -4 -19 -20 -58 -36 -87 -43 -79 -46 -85 -69 -132 -11 -24 -34 -57 -51
-73 -16 -16 -29 -35 -29 -42 0 -7 -21 -40 -47 -73 -27 -33 -53 -69 -60 -79
-10 -16 -12 -10 -12 37 -1 79 -20 133 -111 317 -44 89 -80 170 -80 179 0 9 21
51 46 94 36 62 51 78 71 81 29 3 28 2 78 113 20 44 45 98 56 120 11 23 16 49
13 62 -8 29 31 64 116 104 36 17 90 43 120 57 32 15 85 54 126 94 40 39 79 68
91 68 21 0 78 39 69 47 -3 3 -19 -5 -36 -17 -17 -12 -34 -20 -37 -17 -7 8 66
107 78 107 5 0 14 10 19 23 6 12 24 45 42 72 39 63 68 115 129 235 61 119 81
150 95 150 5 0 23 -18 40 -39 51 -69 95 -78 155 -31 21 17 48 33 60 35 12 3
32 13 43 23 17 16 31 24 54 31 1 1 2 -3 2 -8z m3435 0 c-3 -5 -1 -12 4 -15 12
-8 8 -37 -5 -34 -5 2 -8 11 -7 21 2 9 -2 17 -7 17 -6 0 -10 5 -10 10 0 6 7 10
16 10 8 0 13 -4 9 -9z m685 -20 c0 -19 -25 -29 -42 -17 -10 7 -15 16 -11 19
10 10 53 8 53 -2z m150 -6 c10 -12 10 -15 -4 -15 -9 0 -16 7 -16 15 0 8 2 15
4 15 2 0 9 -7 16 -15z m-390 -12 c12 -3 10 -9 -9 -24 -21 -17 -22 -22 -10 -30
10 -6 0 -9 -30 -9 l-45 0 34 25 c33 24 33 29 -2 26 -18 -2 -24 10 -12 22 7 6
39 2 74 -10z m430 7 c0 -5 -4 -10 -10 -10 -5 0 -10 5 -10 10 0 6 5 10 10 10 6
0 10 -4 10 -10z m255 0 c-3 -5 -11 -10 -16 -10 -6 0 -7 5 -4 10 3 6 11 10 16
10 6 0 7 -4 4 -10z m-533 -21 c9 -5 36 -9 59 -9 52 0 46 -10 -7 -12 -21 0 -45
-5 -51 -11 -9 -6 -21 -4 -38 7 -13 9 -38 16 -55 16 -18 0 -30 5 -30 14 0 10
13 12 53 8 28 -2 60 -8 69 -13z m328 -5 c0 -21 -17 -17 -23 5 -3 14 -1 18 9
14 8 -3 14 -11 14 -19z m-170 6 c0 -5 -9 -10 -19 -10 -11 0 -23 5 -26 10 -4 6
5 10 19 10 14 0 26 -4 26 -10z m200 -5 c0 -8 9 -15 20 -15 11 0 20 -4 20 -10
0 -14 -22 -12 -42 4 -20 14 -24 36 -8 36 6 0 10 -7 10 -15z m-1440 -15 c-8 -5
-17 -7 -19 -4 -3 3 1 9 9 14 8 5 17 7 19 4 3 -3 -1 -9 -9 -14z m1377 4 c-3 -3
-12 -4 -19 -1 -8 3 -5 6 6 6 11 1 17 -2 13 -5z m-1007 -14 c0 -5 -4 -10 -10
-10 -5 0 -10 5 -10 10 0 6 5 10 10 10 6 0 10 -4 10 -10z m870 -5 c0 -8 -7 -15
-15 -15 -16 0 -20 12 -8 23 11 12 23 8 23 -8z m385 -21 c8 -43 6 -46 -19 -29
-13 10 -17 21 -12 39 9 37 23 32 31 -10z m-1195 10 c0 -2 -9 -4 -21 -4 -11 0
-18 4 -14 10 5 8 35 3 35 -6z m614 7 c7 -10 -32 -47 -40 -38 -7 7 14 47 26 47
5 0 11 -4 14 -9z m-464 -17 c0 -8 -4 -12 -10 -9 -5 3 -10 10 -10 16 0 5 5 9
10 9 6 0 10 -7 10 -16z m223 9 c-7 -2 -19 -2 -25 0 -7 3 -2 5 12 5 14 0 19 -2
13 -5z m554 1 c-3 -3 -12 -4 -19 -1 -8 3 -5 6 6 6 11 1 17 -2 13 -5z m149 -9
c-16 -17 -36 -20 -36 -6 0 8 17 16 43 20 5 0 2 -6 -7 -14z m61 9 c-3 -3 -12
-4 -19 -1 -8 3 -5 6 6 6 11 1 17 -2 13 -5z m240 0 c-3 -3 -12 -4 -19 -1 -8 3
-5 6 6 6 11 1 17 -2 13 -5z m-743 -26 c-8 -28 -4 -24 -31 -32 -18 -6 -22 -4
-17 8 3 9 12 16 19 16 7 0 15 7 19 15 9 24 18 17 10 -7z m-1059 2 c3 -5 -1
-10 -9 -10 -9 0 -16 5 -16 10 0 6 4 10 9 10 6 0 13 -4 16 -10z m40 0 c3 -5 1
-10 -4 -10 -6 0 -11 5 -11 10 0 6 2 10 4 10 3 0 8 -4 11 -10z m1505 -2 c0 -6
-3 -8 -7 -5 -3 4 -12 2 -20 -4 -10 -9 -13 -8 -13 5 0 9 8 16 20 16 11 0 20 -5
20 -12z m-103 -4 c-3 -3 -12 -4 -19 -1 -8 3 -5 6 6 6 11 1 17 -2 13 -5z m216
-9 c4 -8 2 -17 -3 -20 -6 -4 -10 3 -10 14 0 25 6 27 13 6z m-1483 -9 c9 -12 8
-15 -9 -13 -21 1 -26 8 -14 20 9 9 9 9 23 -7z m1525 4 c3 -5 1 -10 -4 -10 -6
0 -11 5 -11 10 0 6 2 10 4 10 3 0 8 -4 11 -10z m-1585 -4 c0 -3 -4 -8 -10 -11
-5 -3 -10 -1 -10 4 0 6 5 11 10 11 6 0 10 -2 10 -4z m1173 -13 c-7 -2 -19 -2
-25 0 -7 3 -2 5 12 5 14 0 19 -2 13 -5z m-209 -24 c-2 -4 -17 -12 -33 -17 -24
-8 -34 -7 -49 7 -19 16 -18 17 33 17 30 0 52 -3 49 -7z m391 1 c-3 -5 -12 -10
-18 -10 -7 0 -6 4 3 10 19 12 23 12 15 0z m103 -7 c-10 -2 -26 -2 -35 0 -10 3
-2 5 17 5 19 0 27 -2 18 -5z m89 -15 c-3 -8 -6 -5 -6 6 -1 11 2 17 5 13 3 -3
4 -12 1 -19z m-1534 -15 c3 -16 4 -29 2 -31 -7 -7 -41 35 -37 46 7 22 30 12
35 -15z m987 11 c0 -2 -7 -4 -15 -4 -8 0 -15 4 -15 10 0 5 7 7 15 4 8 -4 15
-8 15 -10z m295 6 c3 -5 1 -10 -4 -10 -6 0 -11 5 -11 10 0 6 2 10 4 10 3 0 8
-4 11 -10z m231 -5 c-3 -8 -1 -15 4 -15 6 0 10 -5 10 -11 0 -8 -5 -8 -15 1
-17 15 -20 40 -4 40 6 0 9 -7 5 -15z m-11841 -19 c44 -7 138 -22 208 -32 119
-17 128 -20 134 -42 3 -13 2 -27 -3 -32 -12 -11 -208 5 -304 24 -41 8 -94 15
-118 16 l-43 0 7 -48 c6 -45 4 -50 -22 -67 -57 -37 -182 -57 -202 -32 -5 6
-13 44 -17 84 -7 68 -6 72 18 88 13 8 53 20 88 26 34 5 70 14 78 19 23 13 83
12 176 -4z m4715 11 c0 -2 -10 -15 -21 -28 -12 -13 -33 -40 -48 -59 -38 -51
-50 -62 -62 -58 -8 3 -7 9 2 18 8 8 31 38 52 67 21 28 43 54 50 56 15 7 27 8
27 4z m6630 -11 c0 -9 -30 -14 -35 -6 -4 6 3 10 14 10 12 0 21 -2 21 -4z m70
-16 c0 -5 -4 -10 -10 -10 -5 0 -10 5 -10 10 0 6 5 10 10 10 6 0 10 -4 10 -10z
m-613 -6 c-3 -3 -12 -4 -19 -1 -8 3 -5 6 6 6 11 1 17 -2 13 -5z m736 -1 c-7
-2 -19 -2 -25 0 -7 3 -2 5 12 5 14 0 19 -2 13 -5z m160 0 c-7 -2 -21 -2 -30 0
-10 3 -4 5 12 5 17 0 24 -2 18 -5z m-16035 -73 c-7 -11 -17 -20 -23 -20 -16 0
-82 -65 -89 -88 -8 -23 -26 -30 -26 -11 0 14 29 66 53 93 46 56 51 59 55 48 8
-25 22 -11 16 16 l-6 27 16 -22 c14 -19 15 -26 4 -43z m15457 31 c3 -5 1 -12
-5 -16 -5 -3 -10 1 -10 9 0 18 6 21 15 7z m-3588 -56 c25 -43 73 -155 73 -170
0 -3 -8 -5 -17 -5 -16 0 -15 -3 4 -18 38 -30 59 -129 70 -327 l5 -90 -104
-105 c-69 -69 -117 -127 -140 -170 -19 -36 -45 -82 -57 -103 -11 -21 -21 -48
-21 -62 0 -21 -29 -102 -66 -180 -7 -16 -23 -50 -34 -75 -11 -25 -29 -59 -39
-77 l-20 -32 32 -18 c18 -10 61 -32 97 -47 36 -16 89 -40 118 -53 l54 -24 -5
-47 c-3 -26 -12 -74 -20 -107 -9 -33 -19 -85 -22 -115 -4 -30 -8 -62 -9 -70
-2 -8 -6 -42 -10 -75 -4 -33 -12 -84 -18 -113 -10 -44 -9 -55 3 -63 9 -6 10
-9 2 -9 -7 0 -15 -21 -19 -50 -4 -28 -7 -50 -8 -50 0 -1 -19 -3 -41 -5 -22 -3
-87 -12 -145 -20 -58 -8 -139 -18 -180 -22 -41 -5 -74 -12 -73 -18 5 -23 113
-29 222 -12 137 22 200 22 208 1 3 -9 -2 -51 -12 -93 -9 -42 -20 -101 -24
-131 -4 -30 -10 -61 -14 -67 -6 -10 -47 -11 -167 -7 -166 5 -223 -3 -288 -41
-24 -15 -30 -15 -64 -1 -20 9 -39 20 -43 26 -3 5 -15 10 -27 10 -18 0 -19 4
-13 38 6 33 38 86 121 201 13 19 24 37 24 41 0 3 -35 28 -77 55 -43 26 -107
67 -143 89 -36 23 -76 47 -90 54 -14 7 -56 32 -95 57 -38 25 -75 45 -82 45 -6
0 -31 -26 -55 -58 -44 -59 -54 -75 -90 -143 -11 -21 -26 -39 -34 -39 -8 0 -14
-4 -14 -9 0 -5 -18 -1 -40 10 -21 10 -52 19 -69 19 -16 0 -32 4 -35 9 -3 4
-21 7 -40 5 l-33 -4 1 44 c0 24 4 42 9 39 4 -2 7 7 7 21 0 13 7 32 16 40 8 9
13 20 10 24 -3 5 3 18 13 28 10 11 21 32 25 47 4 17 11 25 18 21 6 -4 8 -3 5
3 -7 11 15 63 42 99 9 12 23 32 31 44 8 12 20 28 25 34 17 18 101 150 108 169
3 9 15 17 26 17 17 0 18 3 8 29 -9 25 -7 33 20 67 16 22 69 104 117 182 95
158 161 252 176 252 6 0 10 5 10 10 0 6 -7 10 -15 10 -8 0 -15 4 -15 10 0 5
-7 7 -15 4 -9 -4 -15 -1 -15 7 0 8 -11 15 -25 15 -26 2 -58 27 -48 38 4 3 -6
6 -20 6 -15 0 -27 5 -27 10 0 6 5 10 11 10 7 0 18 8 25 18 11 13 15 14 22 4
11 -17 40 -5 48 20 9 30 22 9 27 -45 5 -51 16 -76 18 -36 0 14 3 18 6 9 2 -8
7 -22 9 -30 4 -12 6 -12 14 0 7 12 17 10 59 -10 58 -27 65 -39 21 -38 -22 1
-29 5 -26 15 6 14 -3 16 -28 7 -26 -10 -18 -43 16 -64 33 -20 58 -13 58 17 0
7 7 16 15 20 9 3 23 19 31 35 17 33 10 55 -12 37 -15 -12 -17 -6 -8 29 4 12
12 22 19 22 8 0 11 8 8 19 -3 14 2 20 22 25 15 4 30 5 33 2 5 -6 37 33 37 46
0 4 8 17 18 28 9 11 17 25 17 30 0 5 8 14 18 19 9 5 39 45 66 88 27 43 59 94
71 113 130 200 184 322 153 342 -22 14 -38 9 -38 -13 0 -11 -4 -17 -10 -14 -5
3 -7 0 -4 -9 3 -8 12 -12 20 -9 8 3 14 0 14 -6 0 -13 -26 -15 -34 -3 -6 10
-120 66 -153 77 -30 8 -29 29 1 43 28 12 41 5 25 -15 -9 -10 -8 -13 5 -13 9 0
16 4 16 8 0 4 21 15 46 25 35 13 49 14 63 5 15 -9 25 -7 52 12 22 16 34 20 37
12 2 -7 11 -12 19 -12 10 0 13 -6 9 -16 -5 -12 -1 -14 15 -9 15 5 19 4 15 -4
-5 -8 1 -8 21 0 52 19 110 58 141 94 17 19 36 35 42 35 16 0 11 43 -10 83 -11
20 -20 40 -20 44 0 10 5 2 37 -52z m4270 49 c-3 -3 -12 -4 -19 -1 -8 3 -5 6 6
6 11 1 17 -2 13 -5z m-5707 -51 c1 -27 7 -77 15 -113 23 -104 17 -351 -9 -377
-3 -3 -19 0 -36 7 -26 11 -33 10 -49 -4 -11 -10 -27 -16 -37 -14 -12 2 -46
-32 -111 -112 -52 -63 -98 -124 -102 -135 -6 -14 -3 -28 10 -47 25 -34 10 -43
-35 -21 -35 16 -36 16 -61 -7 -14 -13 -25 -27 -25 -30 0 -7 -97 -215 -168
-358 -19 -40 -39 -75 -43 -78 -4 -2 -34 -6 -67 -9 -78 -7 -187 -47 -231 -85
-52 -44 -140 -85 -154 -71 -12 12 24 57 55 67 19 6 58 72 58 98 0 9 9 32 19
53 11 21 25 49 30 63 6 14 29 54 52 90 23 36 50 88 60 116 10 27 35 66 55 85
20 18 50 54 67 79 16 25 31 47 33 48 10 13 84 20 112 11 32 -10 35 -9 62 22
15 19 43 72 61 118 40 102 122 242 199 336 31 39 92 125 136 192 43 68 85 123
92 123 8 0 12 -16 12 -47z m5000 33 c0 -11 -19 -15 -25 -6 -3 5 1 10 9 10 9 0
16 -2 16 -4z m147 -22 c-3 -3 -12 -4 -19 -1 -8 3 -5 6 6 6 11 1 17 -2 13 -5z
m-214 -91 c-7 -2 -19 -2 -25 0 -7 3 -2 5 12 5 14 0 19 -2 13 -5z m594 1 c-3
-3 -12 -4 -19 -1 -8 3 -5 6 6 6 11 1 17 -2 13 -5z m-6992 -23 c-3 -6 -11 -11
-17 -11 -6 0 -6 6 2 15 14 17 26 13 15 -4z m-8126 -13 c9 -24 7 -145 -4 -308
-4 -52 -6 -108 -6 -123 2 -38 -18 -75 -30 -56 -12 19 -11 109 1 109 6 0 10 18
10 40 0 25 -5 40 -12 40 -10 0 -10 2 -1 8 8 5 9 13 3 22 -13 20 -13 247 0 271
14 25 29 24 39 -3z m14731 -33 c0 -13 -4 -14 -20 -5 -11 6 -20 13 -20 15 0 3
9 5 20 5 11 0 20 -7 20 -15z m-4115 -25 c-3 -5 -13 -10 -21 -10 -8 0 -14 5
-14 10 0 6 9 10 21 10 11 0 17 -4 14 -10z m3502 -27 c-15 -16 -17 -16 -17 -1
0 9 6 18 13 21 20 7 22 -2 4 -20z m143 13 c0 -2 -7 -7 -16 -10 -8 -3 -12 -2
-9 4 6 10 25 14 25 6z m903 -13 c-7 -2 -19 -2 -25 0 -7 3 -2 5 12 5 14 0 19
-2 13 -5z m-603 -63 c0 -5 -7 -7 -15 -4 -8 4 -15 8 -15 10 0 2 7 4 15 4 8 0
15 -4 15 -10z m-15190 -94 c0 -8 3 -16 8 -18 8 -4 37 -62 87 -178 20 -47 48
-109 62 -139 20 -44 23 -58 14 -80 -10 -24 -272 -290 -401 -406 -201 -182
-303 -266 -316 -261 -8 3 -20 20 -28 38 -8 18 -33 74 -55 124 -66 146 -62 158
111 339 53 55 115 123 139 152 24 28 81 94 127 145 131 147 176 199 186 217 5
9 18 25 28 35 10 11 18 26 18 33 0 7 5 13 10 13 6 0 10 -6 10 -14z m15917 -82
c-3 -3 -12 -4 -19 -1 -8 3 -5 6 6 6 11 1 17 -2 13 -5z m-4965 -307 c52 -24 60
-41 26 -51 -18 -4 -20 -8 -11 -17 10 -10 5 -20 -22 -46 -19 -19 -35 -43 -35
-53 0 -11 -7 -20 -15 -20 -8 0 -15 -6 -15 -13 0 -7 -13 -21 -30 -30 l-30 -18
0 25 c0 14 -7 29 -17 34 -12 7 -15 18 -10 47 4 21 10 41 15 44 5 3 13 17 17
31 12 39 36 70 54 71 11 0 9 3 -6 9 -13 5 -23 12 -23 16 0 10 50 -4 102 -29z
m-178 -111 c-13 -10 -22 -11 -29 -5 -7 7 -4 15 9 25 13 9 23 11 30 4 7 -7 3
-15 -10 -24z m4423 28 c-3 -3 -12 -4 -19 -1 -8 3 -5 6 6 6 11 1 17 -2 13 -5z
m270 0 c-3 -3 -12 -4 -19 -1 -8 3 -5 6 6 6 11 1 17 -2 13 -5z m-467 -28 c0 -3
-4 -8 -10 -11 -5 -3 -10 -1 -10 4 0 6 5 11 10 11 6 0 10 -2 10 -4z m-4333 -78
c-3 -8 -6 -5 -6 6 -1 11 2 17 5 13 3 -3 4 -12 1 -19z m111 -6 c2 -7 -3 -12
-12 -12 -9 0 -16 7 -16 16 0 17 22 14 28 -4z m-848 -184 c0 -7 31 -73 69 -147
37 -75 72 -152 76 -171 3 -19 11 -49 17 -66 13 -36 -10 -153 -48 -249 -13 -33
-27 -76 -30 -95 -4 -19 -12 -42 -19 -50 -7 -8 -15 -31 -18 -50 -9 -61 -76
-188 -125 -238 -61 -61 -195 -168 -266 -210 -30 -19 -97 -52 -148 -73 -203
-87 -229 -108 -262 -212 -19 -61 -78 -137 -106 -137 -12 0 -21 10 -25 30 -12
54 4 88 75 160 38 38 79 91 92 116 12 26 49 77 81 113 31 36 69 82 85 102 24
32 31 36 60 32 40 -7 43 12 5 43 l-26 21 17 42 c26 66 80 145 139 203 62 61
92 101 141 188 25 45 76 194 76 223 0 32 34 125 54 149 13 14 20 17 30 9 12
-10 26 -5 26 10 0 4 -13 12 -30 18 -26 9 -30 15 -30 47 0 38 43 178 62 201 11
14 28 8 28 -9z m920 12 c0 -5 -4 -10 -10 -10 -5 0 -10 5 -10 10 0 6 5 10 10
10 6 0 10 -4 10 -10z m-3790 -80 c0 -5 -7 -10 -15 -10 -8 0 -15 5 -15 10 0 6
7 10 15 10 8 0 15 -4 15 -10z m2444 -179 c17 -14 13 -49 -10 -86 -6 -11 -15
-31 -19 -45 -4 -14 -24 -59 -45 -100 -46 -91 -72 -187 -69 -255 4 -99 0 -125
-25 -149 -31 -28 -96 -60 -156 -76 -67 -18 -117 -49 -145 -91 -26 -37 -63
-164 -85 -292 -12 -68 -26 -90 -41 -66 -13 21 -38 143 -54 264 -16 125 -13
135 66 240 55 73 100 101 184 116 138 24 148 35 185 207 17 80 20 117 14 160
-4 31 -6 62 -4 67 2 6 4 27 4 47 2 45 17 61 74 81 46 15 91 7 126 -22z m5416
9 c0 -5 -10 -10 -22 -10 -19 0 -20 2 -8 10 19 13 30 13 30 0z m-20 -89 c0 -9
-24 -21 -43 -21 -6 0 -2 7 9 15 22 17 34 19 34 6z m65 -1 c3 -6 -4 -10 -17
-10 -18 0 -20 2 -8 10 19 12 18 12 25 0z m-6202 -108 l38 -77 -69 -145 c-38
-80 -98 -203 -132 -275 -64 -136 -70 -140 -84 -61 l-7 39 -52 -6 c-36 -5 -82
0 -156 17 -58 14 -131 27 -161 31 -64 8 -100 28 -100 54 0 11 -8 21 -17 23
-15 3 -15 5 2 22 18 18 18 19 0 32 -19 14 -18 20 14 38 10 6 40 26 66 45 27
19 103 62 170 96 67 34 137 73 156 87 19 14 72 35 119 47 120 32 130 37 130
64 0 24 17 47 35 47 5 0 27 -35 48 -78z m6152 68 c-3 -5 -13 -10 -21 -10 -8 0
-12 5 -9 10 3 6 13 10 21 10 8 0 12 -4 9 -10z m-6375 -62 c-19 -6 -44 -14 -55
-18 -64 -27 -88 -19 -37 12 16 11 46 17 77 17 l50 -1 -35 -10z m6467 -24 c-3
-3 -12 -4 -19 -1 -8 3 -5 6 6 6 11 1 17 -2 13 -5z m800 -180 c-3 -3 -12 -4
-19 -1 -8 3 -5 6 6 6 11 1 17 -2 13 -5z m-12952 -134 c3 -5 1 -10 -4 -10 -6 0
-11 5 -11 10 0 6 2 10 4 10 3 0 8 -4 11 -10z m-1042 -17 c-7 -2 -21 -2 -30 0
-10 3 -4 5 12 5 17 0 24 -2 18 -5z m850 0 c-7 -2 -21 -2 -30 0 -10 3 -4 5 12
5 17 0 24 -2 18 -5z m-328 -23 c4 -6 -6 -10 -22 -9 -25 0 -26 1 -8 9 11 5 21
9 22 9 1 1 5 -3 8 -9z m-687 -59 c5 -30 -18 -24 -29 8 -7 18 -6 22 9 19 9 -2
19 -14 20 -27z m55 -14 c-3 -5 -10 -4 -15 1 -6 6 -7 16 -3 22 6 9 9 9 16 -1 4
-7 5 -17 2 -22z m-635 -10 c2 -10 -3 -17 -12 -17 -10 0 -16 9 -16 21 0 24 23
21 28 -4z m742 -37 c0 -5 -9 -10 -20 -10 -11 0 -20 5 -20 10 0 6 9 10 20 10
11 0 20 -4 20 -10z m223 -7 c-7 -2 -21 -2 -30 0 -10 3 -4 5 12 5 17 0 24 -2
18 -5z m-1593 -12 c0 -5 -71 -76 -157 -157 -197 -187 -216 -204 -244 -229 -83
-70 -48 -33 156 168 127 124 233 226 238 226 4 1 7 -3 7 -8z m1363 -18 c-7 -2
-19 -2 -25 0 -7 3 -2 5 12 5 14 0 19 -2 13 -5z m-733 -18 c0 -8 -4 -15 -10
-15 -5 0 -10 7 -10 15 0 8 5 15 10 15 6 0 10 -7 10 -15z m2734 -16 c8 -40 8
-88 0 -127 -6 -29 -7 -29 -24 -12 -33 33 -26 170 9 170 5 0 11 -14 15 -31z
m-1736 -26 c-10 -2 -26 -2 -35 0 -10 3 -2 5 17 5 19 0 27 -2 18 -5z m-988 -33
c0 -11 0 -23 1 -27 0 -4 -4 -9 -10 -11 -14 -5 -25 23 -17 43 8 22 26 18 26 -5z
m767 4 c-3 -3 -12 -4 -19 -1 -8 3 -5 6 6 6 11 1 17 -2 13 -5z m586 -1 c-7 -2
-19 -2 -25 0 -7 3 -2 5 12 5 14 0 19 -2 13 -5z m7461 -65 c-21 -35 -46 -74
-56 -87 -10 -14 -27 -44 -38 -69 -21 -47 -61 -97 -182 -232 -60 -65 -80 -95
-88 -130 -29 -128 -62 -210 -105 -265 -16 -20 -17 -19 -92 20 -43 22 -86 50
-97 63 -11 12 -25 22 -31 22 -15 0 -95 60 -95 71 0 5 14 22 30 37 19 17 44 59
65 112 39 98 73 130 185 175 137 56 306 149 345 191 6 6 29 25 53 43 48 37 54
25 16 -31 -28 -39 -27 -62 1 -35 8 9 15 18 15 22 0 11 103 165 108 161 2 -3
-13 -33 -34 -68z m-7799 -7 c-8 -13 -35 -15 -35 -2 0 5 8 11 18 13 21 5 26 2
17 -11z m710 9 c3 -5 2 -10 -4 -10 -5 0 -13 5 -16 10 -3 6 -2 10 4 10 5 0 13
-4 16 -10z m-1065 -56 c0 -2 -15 -4 -32 -4 -23 0 -29 3 -19 9 12 8 51 4 51 -5z
m7068 -21 c22 -24 23 -30 16 -132 -3 -58 -7 -107 -8 -108 -1 -1 -19 2 -40 8
-43 12 -84 5 -138 -22 -21 -11 -38 -15 -38 -10 0 6 -7 8 -16 4 -14 -5 -16 -1
-12 23 10 58 60 229 71 243 33 39 127 36 165 -6z m-7713 17 c-3 -5 -13 -10
-21 -10 -8 0 -14 5 -14 10 0 6 9 10 21 10 11 0 17 -4 14 -10z m420 -16 c13 -5
14 -8 3 -15 -18 -12 -65 -11 -72 0 -11 17 37 27 69 15z m1343 -16 c16 -16 15
-28 -3 -28 -8 0 -15 2 -15 4 0 2 -3 11 -6 20 -7 19 7 21 24 4z m-1478 -39 c0
-5 -11 -9 -25 -9 -33 0 -33 15 0 16 14 1 25 -2 25 -7z m-280 -29 c0 -5 -7 -10
-15 -10 -8 0 -15 5 -15 10 0 6 7 10 15 10 8 0 15 -4 15 -10z m675 0 c4 -6 -7
-10 -27 -9 -31 1 -32 1 -8 9 14 4 26 8 27 9 1 1 5 -3 8 -9z m-275 -30 c0 -5
-5 -10 -11 -10 -5 0 -7 5 -4 10 3 6 8 10 11 10 2 0 4 -4 4 -10z m680 -40 c0
-5 -11 -10 -24 -10 -14 0 -28 5 -31 10 -4 6 7 10 24 10 17 0 31 -4 31 -10z
m-780 -10 c0 -5 -12 -10 -26 -10 -14 0 -23 4 -19 10 3 6 15 10 26 10 10 0 19
-4 19 -10z m137 4 c-3 -3 -12 -4 -19 -1 -8 3 -5 6 6 6 11 1 17 -2 13 -5z
m-429 -26 c-3 -7 -11 -13 -18 -13 -7 0 -15 6 -17 13 -3 7 4 12 17 12 13 0 20
-5 18 -12z m1117 -78 c3 -5 -1 -10 -10 -10 -9 0 -13 5 -10 10 3 6 8 10 10 10
2 0 7 -4 10 -10z m-805 -19 c0 -5 -11 -11 -25 -13 -17 -4 -25 -1 -25 8 0 8 11
14 25 14 14 0 25 -4 25 -9z m7490 0 c0 -5 8 -17 17 -27 10 -9 25 -34 35 -56
l17 -38 -25 0 c-39 0 -61 17 -74 55 -13 39 -6 75 16 75 8 0 14 -4 14 -9z
m-7792 -13 c-6 -18 -28 -21 -28 -4 0 9 7 16 16 16 9 0 14 -5 12 -12z m1517 2
c3 -5 3 -10 -2 -10 -4 0 -18 -3 -30 -6 -17 -5 -23 -2 -23 10 0 18 45 23 55 6z
m-790 -19 c3 -5 2 -12 -2 -14 -12 -8 -63 4 -63 14 0 12 57 12 65 0z m415 -70
c0 -6 -5 -13 -10 -16 -15 -9 -43 3 -35 15 8 13 45 13 45 1z m-1122 -23 c-7
-19 -38 -22 -38 -4 0 10 9 16 21 16 12 0 19 -5 17 -12z m457 2 c-3 -5 -13 -10
-21 -10 -8 0 -14 5 -14 10 0 6 9 10 21 10 11 0 17 -4 14 -10z m1100 -15 c0 -5
-17 -11 -37 -13 -38 -3 -53 12 -20 21 26 8 57 3 57 -8z m-850 -25 c3 -5 -3
-10 -14 -10 -12 0 -21 5 -21 10 0 6 6 10 14 10 8 0 18 -4 21 -10z m9265 -17
c8 -2 73 -6 143 -9 135 -4 147 -6 147 -30 0 -31 -272 -11 -338 25 -48 26 -15
35 48 14z m-8790 -52 c0 -17 -20 -23 -53 -15 l-32 8 30 7 c45 10 55 10 55 0z
m12670 -17 c0 -8 -4 -12 -10 -9 -5 3 -10 10 -10 16 0 5 5 9 10 9 6 0 10 -7 10
-16z m-13530 -14 c0 -5 -15 -10 -32 -10 -25 0 -29 3 -18 10 20 13 50 13 50 0z
m1285 -10 c-3 -5 -17 -10 -30 -10 -13 0 -27 5 -30 10 -4 6 8 10 30 10 22 0 34
-4 30 -10z m8230 -20 c26 0 34 -14 13 -24 -7 -3 -3 -3 9 0 14 3 29 -2 41 -14
13 -13 46 -22 117 -30 57 -8 106 -19 115 -27 9 -8 22 -15 29 -15 6 0 11 -8 9
-17 -2 -15 5 -18 36 -19 31 0 42 -5 49 -22 15 -34 -5 -69 -45 -77 -18 -4 -52
-16 -75 -26 -23 -11 -51 -19 -62 -19 -12 0 -21 -4 -21 -8 0 -9 -59 -32 -82
-32 -9 0 -18 -7 -22 -15 -6 -17 -59 -14 -159 9 -52 12 -70 12 -112 1 -42 -11
-51 -10 -58 2 -16 27 6 97 53 173 26 41 51 86 55 99 4 13 14 40 22 58 14 34
15 34 38 19 13 -9 36 -16 50 -16z m-9120 -10 c-3 -5 -10 -10 -16 -10 -5 0 -9
5 -9 10 0 6 7 10 16 10 8 0 12 -4 9 -10z m-625 -10 c0 -5 -2 -10 -4 -10 -3 0
-8 5 -11 10 -3 6 -1 10 4 10 6 0 11 -4 11 -10z m13817 -16 c-3 -3 -12 -4 -19
-1 -8 3 -5 6 6 6 11 1 17 -2 13 -5z m-13887 -39 c0 -8 -9 -15 -20 -15 -20 0
-26 11 -13 23 12 13 33 7 33 -8z m13807 -7 c-3 -8 -6 -5 -6 6 -1 11 2 17 5 13
3 -3 4 -12 1 -19z m-12625 -10 c-8 -8 -17 -8 -34 0 -22 10 -21 11 12 11 26 1
31 -2 22 -11z m-872 -18 c0 -5 -9 -10 -21 -10 -11 0 -17 5 -14 10 3 6 13 10
21 10 8 0 14 -4 14 -10z m1345 -11 c-8 -12 -85 -12 -85 1 0 5 13 7 29 4 16 -4
32 -1 35 5 4 6 12 9 17 5 5 -3 7 -10 4 -15z m-875 -24 c0 -10 -11 -15 -35 -15
-33 0 -43 8 -28 23 13 14 63 7 63 -8z m13147 -11 c-3 -3 -12 -4 -19 -1 -8 3
-5 6 6 6 11 1 17 -2 13 -5z m-13439 -31 c-10 -2 -26 -2 -35 0 -10 3 -2 5 17 5
19 0 27 -2 18 -5z m-478 -24 c0 -5 -7 -9 -15 -9 -15 0 -20 12 -9 23 8 8 24 -1
24 -14z m2105 -8 c0 -8 -4 -16 -10 -18 -16 -5 -38 14 -30 26 9 16 40 9 40 -8z
m-1147 -3 c-3 -7 -17 -13 -33 -13 -16 0 -30 6 -32 13 -3 8 7 12 32 12 25 0 35
-4 33 -12z m292 -3 c0 -11 -11 -15 -40 -15 -29 0 -40 4 -40 15 0 11 11 15 40
15 29 0 40 -4 40 -15z m12676 0 c4 -8 13 -15 22 -15 8 0 13 -3 9 -6 -9 -9 -45
5 -51 21 -3 8 -1 15 5 15 5 0 12 -7 15 -15z m-13586 -30 c0 -9 -9 -15 -25 -15
-24 0 -32 10 -18 23 12 13 43 7 43 -8z m1370 0 c0 -8 -9 -16 -20 -16 -11 -1
-25 -2 -32 -3 -19 -2 -20 22 -1 27 36 9 53 7 53 -8z m-1710 -14 c0 -6 -4 -13
-10 -16 -5 -3 -10 1 -10 9 0 9 5 16 10 16 6 0 10 -4 10 -9z m820 -26 c0 -11
-12 -15 -47 -15 -54 0 -49 16 7 23 19 2 36 5 38 5 1 1 2 -5 2 -13z m1480 -44
c0 -25 -4 -29 -37 -34 -40 -7 -83 12 -83 37 0 19 16 24 73 25 45 1 47 0 47
-28z m-2282 -3 c-7 -19 -38 -22 -38 -4 0 10 9 16 21 16 12 0 19 -5 17 -12z
m522 2 c0 -13 -41 -29 -57 -23 -28 11 -13 33 22 33 19 0 35 -5 35 -10z m760
-29 c0 -11 -25 -21 -53 -21 -21 1 -21 1 3 15 29 16 50 19 50 6z m484 -36 c7
-20 -29 -38 -60 -31 -15 4 -24 14 -24 26 0 17 7 20 39 20 25 0 41 -5 45 -15z
m-979 -45 c-3 -5 -13 -10 -21 -10 -8 0 -12 5 -9 10 3 6 13 10 21 10 8 0 12 -4
9 -10z m63 -1 c-2 -6 -8 -10 -13 -10 -5 0 -11 4 -13 10 -2 6 4 11 13 11 9 0
15 -5 13 -11z m13199 -21 c-3 -8 -6 -5 -6 6 -1 11 2 17 5 13 3 -3 4 -12 1 -19z
m-3746 -30 c0 -13 0 -48 -1 -78 -2 -61 -28 -130 -41 -109 -6 10 -11 10 -24 -1
-15 -13 -16 -10 -10 26 5 32 23 110 41 172 6 21 34 13 35 -10z m4389 7 c10
-13 9 -15 -9 -15 -12 0 -21 6 -21 15 0 8 4 15 9 15 5 0 14 -7 21 -15z m-5531
-9 c-12 -10 -59 -15 -59 -6 0 5 14 10 32 10 17 0 29 -2 27 -4z m5425 -28 c-4
-13 -10 -39 -14 -58 l-6 -35 -7 42 c-4 23 -10 48 -13 57 -5 12 0 16 21 16 23
0 25 -3 19 -22z m299 2 c-13 -14 -20 -17 -30 -8 -21 17 -15 28 17 28 29 0 29
-1 13 -20z m-13538 -11 c0 -10 -12 -14 -39 -14 -49 0 -60 22 -14 28 44 5 53 3
53 -14z m-798 -25 c-3 -3 -12 -4 -19 -1 -8 3 -5 6 6 6 11 1 17 -2 13 -5z
m14253 -10 c0 -2 -7 -4 -15 -4 -8 0 -15 4 -15 10 0 5 7 7 15 4 8 -4 15 -8 15
-10z m-13912 -41 c-4 -19 -30 -28 -55 -19 -23 9 3 36 34 36 18 0 24 -5 21 -17z
m432 -22 c0 -6 -4 -13 -10 -16 -5 -3 -10 1 -10 9 0 9 5 16 10 16 6 0 10 -4 10
-9z m13320 -6 c0 -8 -4 -15 -10 -15 -5 0 -10 7 -10 15 0 8 5 15 10 15 6 0 10
-7 10 -15z m77 9 c-3 -3 -12 -4 -19 -1 -8 3 -5 6 6 6 11 1 17 -2 13 -5z m152
-3 c7 -5 12 -14 10 -20 -3 -7 -11 -3 -21 9 -18 21 -13 26 11 11z m-98 -14 c-1
-12 -15 -9 -19 4 -3 6 1 10 8 8 6 -3 11 -8 11 -12z m-311 -28 c0 -5 -4 -9 -10
-9 -5 0 -10 7 -10 16 0 8 5 12 10 9 6 -3 10 -10 10 -16z m405 -9 c3 -6 0 -10
-7 -10 -7 0 -19 9 -26 21 -12 19 -11 19 7 10 11 -6 23 -16 26 -21z m-205 -10
c0 -5 -4 -10 -10 -10 -5 0 -10 5 -10 10 0 6 5 10 10 10 6 0 10 -4 10 -10z
m130 6 c0 -9 -30 -14 -35 -6 -4 6 3 10 14 10 12 0 21 -2 21 -4z m-12420 -46
c0 -12 -28 -20 -45 -14 -18 7 -20 41 -2 47 12 4 47 -20 47 -33z m12460 20 c0
-5 -5 -10 -11 -10 -5 0 -7 5 -4 10 3 6 8 10 11 10 2 0 4 -4 4 -10z m-14230
-19 c0 -21 -31 -33 -51 -20 -11 8 -10 12 5 24 27 20 46 19 46 -4z"/>
<path d="M8590 5035 c-10 -12 -10 -15 3 -15 8 0 17 7 21 15 3 8 2 15 -3 15 -5
0 -14 -7 -21 -15z"/>
<path d="M13396 3491 c-10 -11 -16 -26 -14 -33 3 -8 12 0 22 20 19 37 17 40
-8 13z"/>
<path d="M18055 4040 c-8 -13 9 -20 24 -11 10 6 9 10 -3 14 -8 3 -18 2 -21 -3z"/>
<path d="M14131 3750 c-31 -26 -17 -26 16 0 14 11 22 20 17 20 -5 -1 -20 -10
-33 -20z"/>
<path d="M13617 3172 c-29 -60 -32 -72 -19 -72 13 0 39 52 46 93 4 20 6 37 4
37 -2 0 -15 -26 -31 -58z"/>
<path d="M13637 2880 c-4 -17 -2 -18 14 -9 22 11 25 29 5 29 -7 0 -16 -9 -19
-20z"/>
<path d="M13420 2706 c-5 -15 -10 -31 -10 -36 0 -18 -114 -259 -153 -322 -16
-27 -27 -54 -25 -60 3 -8 9 -5 17 9 6 13 34 52 61 88 28 36 50 71 50 76 0 6
16 43 35 83 19 40 35 78 35 83 0 5 7 25 16 42 15 30 15 34 1 49 -15 14 -17 13
-27 -12z"/>
<path d="M14670 3590 c1 -14 7 -34 15 -44 21 -27 20 1 0 40 -15 29 -15 29 -15
4z"/>
<path d="M13945 2714 c-9 -14 -14 -28 -12 -31 3 -3 13 9 22 26 19 38 14 41
-10 5z"/>
<path d="M13480 2031 c0 -4 41 -46 90 -93 87 -81 90 -86 80 -113 -9 -23 -7
-30 11 -45 16 -15 18 -23 10 -38 -8 -15 -7 -23 3 -31 17 -14 41 11 32 34 -3 8
-1 15 4 15 9 0 14 -21 11 -47 -2 -12 80 -83 96 -83 9 0 25 -27 37 -63 4 -13
12 -17 26 -12 15 5 18 3 14 -9 -4 -11 0 -16 11 -16 9 0 14 -4 10 -9 -3 -5 -1
-12 5 -16 6 -4 8 -10 5 -15 -3 -5 4 -11 15 -15 11 -4 18 -10 15 -15 -3 -5 3
-15 15 -22 11 -7 20 -20 20 -29 0 -19 23 -31 45 -23 11 4 2 21 -35 70 -28 35
-50 66 -50 70 0 3 -13 23 -30 44 -16 21 -30 41 -30 45 0 20 -385 425 -404 425
-3 0 -6 -4 -6 -9z"/>
<path d="M13610 1750 c-8 -14 -7 -26 0 -40 12 -22 35 -17 26 6 -3 7 -1 16 4
19 15 9 12 22 -5 29 -9 3 -19 -3 -25 -14z"/>
<path d="M14140 1645 c-7 -8 -10 -28 -8 -44 2 -17 1 -28 -4 -25 -4 3 -5 -2 -2
-10 8 -21 48 -20 68 0 23 22 30 62 16 79 -16 19 -54 19 -70 0z"/>
<path d="M14271 1627 c-1 -24 -78 -97 -101 -97 -10 0 -31 5 -45 10 -34 13 -30
-5 6 -32 40 -30 82 -15 119 43 20 30 30 57 27 71 -3 16 -5 18 -6 5z"/>
<path d="M13821 1584 c0 -11 3 -14 6 -6 3 7 2 16 -1 19 -3 4 -6 -2 -5 -13z"/>
<path d="M12951 2127 c-12 -16 1 -67 18 -67 16 0 33 29 29 52 -4 27 -30 35
-47 15z"/>
<path d="M13021 2058 c-13 -16 -35 -34 -49 -39 -17 -7 -22 -13 -15 -20 17 -17
59 9 77 48 21 45 17 48 -13 11z"/>
<path d="M12770 1299 c0 -5 5 -7 10 -4 6 3 10 8 10 11 0 2 -4 4 -10 4 -5 0
-10 -5 -10 -11z"/>
<path d="M12745 1255 c-8 -14 -22 -36 -30 -50 -9 -14 -11 -25 -6 -25 10 0 31
31 49 73 15 34 7 35 -13 2z"/>
<path d="M6591 8218 c-28 -682 -31 -871 -17 -885 2 -2 25 12 52 32 105 75 221
150 256 167 21 10 97 58 170 107 158 105 189 122 220 118 19 -2 23 4 29 38 10
68 25 89 77 118 27 15 56 27 63 27 15 0 105 73 132 108 40 48 254 170 357 203
55 17 74 29 88 51 9 16 35 38 58 49 23 11 49 31 58 44 8 13 25 26 36 30 11 3
20 15 20 26 0 12 10 23 25 29 14 5 25 16 25 25 0 13 -92 15 -818 15 l-818 0
-13 -302z"/>
<path d="M13885 8498 c-33 -12 -67 -24 -75 -28 -9 -4 -31 -11 -50 -15 -19 -4
-45 -14 -58 -23 -13 -8 -37 -15 -54 -14 -19 0 -72 -22 -143 -59 -63 -32 -120
-59 -127 -59 -7 0 -34 -17 -59 -38 -26 -21 -72 -49 -103 -62 -31 -14 -56 -28
-56 -32 0 -3 -16 -16 -35 -28 -47 -29 -79 -56 -134 -112 -153 -155 -196 -220
-246 -365 -15 -43 -31 -82 -36 -87 -14 -15 -11 -66 4 -66 22 0 34 -33 31 -85
-2 -35 2 -55 13 -67 20 -22 86 -24 103 -3 7 8 21 15 32 15 28 0 58 18 58 35 0
8 4 15 9 15 10 0 91 70 125 108 11 12 31 22 46 22 15 0 35 9 45 20 10 11 23
20 29 20 6 0 35 23 65 50 30 27 66 52 80 55 14 4 61 27 105 51 43 24 82 44 87
44 4 0 34 8 65 17 52 17 104 58 116 93 5 15 71 20 80 6 5 -8 17 -6 39 7 17 9
39 17 50 17 11 0 31 11 45 25 14 14 29 25 34 25 6 0 10 -11 10 -25 0 -20 5
-25 26 -25 14 0 35 -5 47 -12 12 -7 32 -11 44 -9 25 3 59 -41 47 -60 -5 -9 -2
-10 9 -6 23 9 22 -17 -4 -69 -18 -39 -19 -45 -5 -72 8 -16 12 -39 9 -52 -4
-15 -2 -21 5 -16 11 7 25 -24 27 -63 0 -14 6 -26 13 -29 7 -2 10 -8 6 -13 -3
-5 -5 -55 -6 -112 0 -56 -4 -108 -10 -114 -15 -19 2 -16 24 4 17 15 18 15 18
0 0 -20 16 -23 24 -4 4 6 4 2 2 -10 -4 -21 -1 -22 32 -18 21 2 31 1 25 -3 -9
-6 -10 -18 -3 -42 10 -38 8 -85 -5 -114 -12 -28 9 -37 92 -40 33 -1 37 -12 19
-51 l-18 -36 58 -86 c32 -47 66 -88 76 -91 10 -2 18 -10 18 -17 0 -7 7 -15 15
-18 8 -4 21 -23 30 -44 19 -45 44 -69 90 -89 19 -8 35 -21 35 -29 0 -8 4 -15
9 -15 5 0 7 9 4 20 -3 11 0 20 6 20 6 0 11 -6 11 -14 0 -9 8 -12 25 -8 14 2
25 8 25 13 0 5 14 37 30 71 17 35 29 71 26 81 -3 12 8 32 30 55 19 20 34 40
34 45 0 9 85 97 93 97 4 0 25 18 49 40 24 22 51 40 61 40 24 0 57 18 57 31 0
7 -10 9 -27 4 l-28 -7 27 21 c14 12 37 20 50 19 12 -1 46 11 73 27 66 37 168
40 231 7 99 -51 157 -165 155 -307 -1 -47 -5 -94 -10 -103 -4 -9 -14 -39 -20
-67 -30 -121 -78 -226 -171 -370 -57 -89 -70 -117 -68 -145 1 -19 6 -41 11
-47 6 -8 3 -42 -7 -93 -18 -90 -20 -134 -7 -126 5 3 12 -18 15 -48 4 -30 13
-62 20 -71 12 -16 13 -16 30 0 14 15 15 20 4 27 -10 8 -10 11 0 15 6 2 10 9 6
14 -3 5 2 9 11 9 54 0 102 60 109 139 2 22 14 58 26 80 14 24 21 48 17 61 -3
12 -2 30 3 39 4 9 20 61 34 116 23 93 57 203 76 250 5 11 11 55 15 97 3 43 13
94 21 114 11 26 14 56 10 103 -3 36 -1 82 4 102 6 20 12 61 14 90 2 30 6 61 9
69 5 13 10 41 22 120 4 26 -15 80 -27 80 -5 0 -8 9 -8 21 0 11 4 17 10 14 6
-4 7 2 1 17 -5 13 -12 68 -16 123 -11 152 -104 467 -159 540 -14 19 -26 38
-26 44 0 6 -6 11 -14 11 -14 0 -28 28 -30 60 -2 26 -40 67 -81 87 -24 11 -45
32 -58 55 -17 34 -58 58 -100 58 -4 0 -32 24 -62 54 -40 41 -64 57 -92 61 -33
6 -69 20 -145 56 -9 5 -257 8 -550 8 -513 0 -535 -1 -593 -21z m326 -720 c5
-20 3 -27 -10 -31 -13 -3 -17 3 -17 30 0 38 17 39 27 1z m-937 -89 c-6 -11
-24 -2 -24 11 0 5 7 7 15 4 8 -4 12 -10 9 -15z m2490 -115 c3 -8 2 -12 -4 -9
-6 3 -10 10 -10 16 0 14 7 11 14 -7z"/>
<path d="M12750 7326 c0 -10 28 -13 41 -5 10 6 7 9 -13 9 -16 0 -28 -2 -28 -4z"/>
<path d="M12706 7219 c-8 -20 -15 -27 -18 -18 -3 8 -8 -10 -12 -39 -4 -29 -5
-56 -2 -60 2 -4 6 -56 7 -114 1 -59 6 -105 11 -102 4 3 8 -2 8 -12 0 -14 2
-14 16 -3 10 8 12 15 5 17 -6 2 -11 8 -11 13 0 6 4 8 9 5 4 -3 16 3 26 14 10
11 25 20 34 20 12 0 12 3 3 12 -18 18 -15 26 16 33 49 11 62 28 68 94 6 51 4
65 -11 81 -10 11 -28 20 -40 20 -22 0 -55 28 -55 47 0 9 -22 23 -36 23 -3 0
-11 -14 -18 -31z"/>
<path d="M6342 7220 c0 -14 2 -19 5 -12 2 6 2 18 0 25 -3 6 -5 1 -5 -13z"/>
<path d="M15360 7090 c0 -5 -8 -10 -19 -10 -10 0 -24 -6 -30 -14 -11 -13 -7
-13 26 -4 28 7 56 7 105 -2 38 -7 71 -10 74 -7 4 4 1 8 -7 10 -8 2 -37 11 -65
20 -59 19 -84 21 -84 7z"/>
<path d="M13529 6895 c-1 -5 -1 -19 0 -30 1 -19 0 -19 -15 3 -20 27 -44 29
-44 2 0 -24 -35 -28 -44 -4 -7 20 -72 16 -68 -4 2 -9 -4 -12 -16 -8 -11 4 -41
-9 -82 -36 -59 -38 -89 -49 -132 -49 -9 0 -19 -11 -22 -25 -4 -15 -14 -24 -26
-24 -13 0 -25 -12 -34 -35 -15 -36 -12 -65 6 -65 5 0 23 -9 39 -21 33 -23 78
-23 135 1 47 20 64 8 64 -42 0 -24 9 -68 20 -98 23 -64 23 -63 9 -54 -6 3 -15
0 -20 -7 -12 -20 -11 -69 2 -69 13 0 32 -19 47 -47 16 -28 99 -55 181 -58 36
-1 77 -5 91 -9 19 -5 32 -1 50 14 14 12 37 29 53 38 25 15 27 20 21 62 -5 42
-3 48 28 81 18 20 41 39 51 42 9 4 17 16 17 27 0 16 7 20 38 21 64 2 67 3 67
27 0 30 -61 66 -126 77 -24 3 -53 9 -64 12 -17 5 -18 4 -6 -11 7 -9 23 -16 35
-16 18 0 16 -3 -9 -16 -22 -12 -45 -14 -90 -10 -33 4 -68 6 -77 7 -10 0 -21 5
-24 11 -4 7 -2 8 4 4 6 -4 20 -1 31 6 15 9 23 9 35 -2 9 -7 19 -10 23 -6 3 3
1 6 -5 6 -19 0 -14 18 6 23 16 4 16 5 0 6 -10 0 -18 6 -18 11 0 12 2 12 35 0
23 -9 26 -8 21 5 -7 19 11 19 48 0 16 -8 47 -17 70 -20 22 -3 34 -2 26 1 -8 4
-17 10 -20 13 -6 7 -41 28 -82 48 -15 8 -30 18 -33 24 -4 5 -15 9 -27 9 -11 0
-22 8 -25 20 -4 14 -14 20 -34 20 -15 0 -31 5 -34 10 -4 6 5 10 19 10 14 0 26
4 26 9 0 5 14 14 30 21 39 16 38 26 -4 41 -25 9 -32 17 -28 28 5 14 4 14 -13
1 -17 -13 -18 -13 -13 0 4 11 -3 15 -27 16 -26 0 -32 -3 -28 -15 3 -9 -4 -5
-16 9 -11 14 -21 21 -22 15z m108 -281 c-3 -3 -12 -4 -19 -1 -8 3 -5 6 6 6 11
1 17 -2 13 -5z m23 -138 c0 -3 -4 -8 -10 -11 -5 -3 -10 -1 -10 4 0 6 5 11 10
11 6 0 10 -2 10 -4z m60 -66 c-8 -5 -19 -10 -25 -10 -5 0 -3 5 5 10 8 5 20 10
25 10 6 0 3 -5 -5 -10z"/>
<path d="M13690 6872 c0 -12 69 -46 78 -38 7 8 -13 29 -30 32 -7 1 -21 5 -30
9 -10 4 -18 3 -18 -3z"/>
<path d="M13720 6810 c0 -5 7 -10 15 -10 8 0 15 5 15 10 0 6 -7 10 -15 10 -8
0 -15 -4 -15 -10z"/>
<path d="M13760 6810 c0 -5 9 -10 20 -10 11 0 20 5 20 10 0 6 -9 10 -20 10
-11 0 -20 -4 -20 -10z"/>
<path d="M12712 6773 c0 -10 -3 -65 -7 -123 -3 -58 -3 -117 2 -132 4 -14 34
-53 65 -86 46 -48 57 -66 60 -98 3 -33 7 -40 33 -47 51 -15 60 -24 58 -51 -1
-14 2 -26 6 -26 16 0 71 126 81 185 6 33 15 82 20 108 13 65 13 77 -4 77 -7 0
-19 7 -26 15 -7 8 -21 15 -31 15 -10 0 -45 25 -77 55 -42 38 -68 55 -86 55
-32 0 -66 16 -66 31 0 6 -6 17 -14 25 -13 12 -15 12 -14 -3z"/>
<path d="M7442 6655 c0 -16 2 -22 5 -12 2 9 2 23 0 30 -3 6 -5 -1 -5 -18z"/>
<path d="M5816 6438 c-11 -15 -16 -45 -16 -88 0 -100 27 -116 81 -49 26 32 30
45 22 58 -6 9 -14 36 -18 59 -6 35 -10 42 -30 42 -13 0 -31 -10 -39 -22z"/>
<path d="M19140 6350 c0 -6 7 -10 15 -10 8 0 15 2 15 4 0 2 -7 6 -15 10 -8 3
-15 1 -15 -4z"/>
<path d="M14743 6323 c-7 -14 -10 -30 -7 -35 3 -5 0 -15 -6 -23 -15 -18 5 -49
27 -41 18 7 29 -22 14 -37 -10 -9 -15 -8 -26 6 -7 10 -16 14 -19 8 -9 -13 21
-41 45 -41 10 0 19 -5 19 -12 0 -25 10 1 19 48 7 37 6 53 -4 64 -7 8 -16 27
-20 42 -11 42 -28 51 -42 21z"/>
<path d="M18998 6343 c7 -3 16 -2 19 1 4 3 -2 6 -13 5 -11 0 -14 -3 -6 -6z"/>
<path d="M19088 6343 c7 -3 16 -2 19 1 4 3 -2 6 -13 5 -11 0 -14 -3 -6 -6z"/>
<path d="M14820 6289 c0 -5 5 -7 10 -4 6 3 10 8 10 11 0 2 -4 4 -10 4 -5 0
-10 -5 -10 -11z"/>
<path d="M14836 6214 c-4 -15 -2 -32 3 -37 8 -8 11 0 11 26 0 44 -5 47 -14 11z"/>
<path d="M19087 6159 c7 -7 15 -10 18 -7 3 3 -2 9 -12 12 -14 6 -15 5 -6 -5z"/>
<path d="M14820 6150 c0 -5 5 -10 10 -10 6 0 10 5 10 10 0 6 -4 10 -10 10 -5
0 -10 -4 -10 -10z"/>
<path d="M7567 6080 c-3 -8 -8 -32 -12 -52 -5 -35 -4 -38 18 -38 14 0 28 7 31
16 11 27 6 54 -8 54 -8 0 -16 8 -19 18 -3 14 -5 14 -10 2z"/>
<path d="M19180 6075 c0 -8 5 -15 10 -15 6 0 10 7 10 15 0 8 -4 15 -10 15 -5
0 -10 -7 -10 -15z"/>
<path d="M14838 6011 c-22 -22 -23 -31 -3 -31 8 0 15 7 15 15 0 8 5 15 10 15
6 0 10 5 10 10 0 15 -13 11 -32 -9z"/>
<path d="M19128 6013 c7 -3 16 -2 19 1 4 3 -2 6 -13 5 -11 0 -14 -3 -6 -6z"/>
<path d="M7580 5910 c0 -5 5 -10 10 -10 6 0 10 5 10 10 0 6 -4 10 -10 10 -5 0
-10 -4 -10 -10z"/>
<path d="M19088 5893 c7 -3 16 -2 19 1 4 3 -2 6 -13 5 -11 0 -14 -3 -6 -6z"/>
<path d="M14847 5823 c-4 -3 -7 -11 -7 -17 0 -6 5 -5 12 2 6 6 9 14 7 17 -3 3
-9 2 -12 -2z"/>
<path d="M18940 5770 c-8 -5 -10 -10 -5 -10 6 0 17 5 25 10 8 5 11 10 5 10 -5
0 -17 -5 -25 -10z"/>
<path d="M18998 5773 c7 -3 16 -2 19 1 4 3 -2 6 -13 5 -11 0 -14 -3 -6 -6z"/>
<path d="M19088 5773 c6 -2 18 -2 25 0 6 3 1 5 -13 5 -14 0 -19 -2 -12 -5z"/>
<path d="M13685 5730 c3 -5 11 -10 16 -10 6 0 7 5 4 10 -3 6 -11 10 -16 10 -6
0 -7 -4 -4 -10z"/>
<path d="M19130 5680 c0 -15 7 -20 29 -20 17 0 33 5 37 11 4 8 0 9 -15 4 -14
-4 -23 -1 -27 9 -9 23 -24 20 -24 -4z"/>
<path d="M19101 5674 c0 -11 3 -14 6 -6 3 7 2 16 -1 19 -3 4 -6 -2 -5 -13z"/>
<path d="M19120 5640 c0 -5 5 -10 11 -10 5 0 7 5 4 10 -3 6 -8 10 -11 10 -2 0
-4 -4 -4 -10z"/>
<path d="M19120 5609 c0 -5 6 -9 14 -9 8 0 22 -3 30 -6 11 -4 15 -2 11 7 -6
15 -55 22 -55 8z"/>
<path d="M19037 5584 c-14 -15 -6 -23 25 -26 41 -4 54 -38 14 -38 -14 0 -28 5
-31 10 -3 6 -18 10 -33 10 l-27 0 27 -14 c15 -8 40 -17 57 -21 29 -6 32 -4 37
24 5 24 12 31 38 34 17 2 3 5 -31 5 -34 1 -63 7 -65 13 -2 5 -7 7 -11 3z"/>
<path d="M18998 5563 c7 -3 16 -2 19 1 4 3 -2 6 -13 5 -11 0 -14 -3 -6 -6z"/>
<path d="M19170 5540 c0 -5 5 -10 10 -10 6 0 10 5 10 10 0 6 -4 10 -10 10 -5
0 -10 -4 -10 -10z"/>
<path d="M19130 5530 c0 -5 7 -7 15 -4 8 4 15 8 15 10 0 2 -7 4 -15 4 -8 0
-15 -4 -15 -10z"/>
<path d="M10515 5522 c-6 -4 -17 -20 -25 -36 -8 -16 -23 -31 -32 -34 -12 -3
-18 -14 -18 -33 0 -22 -5 -29 -20 -29 -11 0 -23 7 -26 15 -8 20 -24 19 -24 0
0 -9 7 -18 15 -21 8 -4 15 -13 15 -21 0 -8 11 -29 25 -47 14 -18 25 -38 25
-44 0 -6 8 -17 18 -24 10 -7 28 -33 41 -58 13 -25 26 -47 30 -50 17 -12 85
-139 98 -185 9 -27 42 -100 74 -161 67 -128 88 -215 68 -287 -11 -40 -53 -126
-107 -217 l-26 -45 -8 -414 c-4 -227 -9 -420 -13 -428 -8 -23 56 -8 133 29 78
39 87 61 44 115 -37 48 -40 59 -19 103 8 19 18 47 21 61 5 22 14 29 53 39 58
14 65 24 44 61 -40 71 56 88 257 45 64 -13 139 -27 166 -31 27 -4 55 -9 62
-12 8 -3 14 0 14 6 0 6 -7 11 -15 11 -8 0 -15 7 -15 15 0 8 7 15 15 15 8 0 15
-4 15 -10 0 -5 9 -10 20 -10 15 0 20 7 20 25 0 20 5 25 25 25 14 0 25 5 25 10
0 6 -5 10 -12 10 -9 0 -9 3 0 12 7 7 12 29 12 49 0 49 8 69 29 69 48 0 55 55
9 75 -19 8 -26 14 -15 15 35 0 17 70 -18 70 -13 0 -32 10 -42 23 -10 13 -26
26 -35 30 -26 9 -22 40 7 65 14 12 25 30 25 39 0 24 -50 52 -75 43 -16 -6 -31
4 -67 41 -25 27 -50 49 -55 49 -16 0 -53 59 -53 84 0 14 -5 38 -11 53 -33 82
-44 98 -101 151 -23 22 -38 45 -38 59 0 12 -5 22 -11 20 -6 -1 -17 13 -23 32
-7 19 -22 38 -34 42 -14 5 -22 17 -22 31 0 30 -24 74 -37 71 -6 -1 -17 16 -25
40 -8 25 -22 46 -36 53 -31 15 -53 49 -46 68 3 9 1 16 -5 16 -6 0 -11 8 -11
19 0 10 -7 24 -14 31 -17 13 -56 90 -56 109 0 6 -20 31 -45 55 -25 25 -45 51
-45 59 0 8 -6 19 -12 25 -17 13 -100 24 -113 14z m25 -293 c0 -4 -4 -11 -10
-14 -5 -3 -10 0 -10 9 0 8 -3 23 -6 33 -5 16 -4 16 10 -1 9 -11 16 -23 16 -27z"/>
<path d="M19150 5501 c0 -6 5 -13 10 -16 6 -3 10 1 10 9 0 9 -4 16 -10 16 -5
0 -10 -4 -10 -9z"/>
<path d="M18975 5480 c3 -5 14 -10 23 -10 15 0 15 2 2 10 -20 13 -33 13 -25 0z"/>
<path d="M19074 5471 c3 -5 15 -7 26 -4 28 7 25 13 -6 13 -14 0 -23 -4 -20 -9z"/>
<path d="M19170 5455 c0 -9 6 -12 15 -9 8 4 15 10 15 15 0 5 -7 9 -15 9 -8 0
-15 -7 -15 -15z"/>
<path d="M19110 5450 c-11 -7 -6 -10 20 -10 26 0 31 3 20 10 -8 5 -17 10 -20
10 -3 0 -12 -5 -20 -10z"/>
<path d="M19010 5430 c0 -5 5 -10 11 -10 5 0 7 5 4 10 -3 6 -8 10 -11 10 -2 0
-4 -4 -4 -10z"/>
<path d="M19025 5400 c3 -5 8 -10 11 -10 2 0 4 5 4 10 0 6 -5 10 -11 10 -5 0
-7 -4 -4 -10z"/>
<path d="M19140 5400 c0 -5 7 -10 16 -10 8 0 12 5 9 10 -3 6 -10 10 -16 10 -5
0 -9 -4 -9 -10z"/>
<path d="M19185 5400 c-3 -5 -1 -10 4 -10 6 0 11 5 11 10 0 6 -2 10 -4 10 -3
0 -8 -4 -11 -10z"/>
<path d="M19085 5359 c-4 -6 -5 -12 -2 -15 2 -3 7 2 10 11 7 17 1 20 -8 4z"/>
<path d="M19110 5360 c0 -5 7 -10 16 -10 8 0 12 5 9 10 -3 6 -10 10 -16 10 -5
0 -9 -4 -9 -10z"/>
<path d="M18910 5330 c-8 -5 -12 -12 -9 -15 4 -3 12 1 19 10 14 17 11 19 -10
5z"/>
<path d="M19187 5319 c4 -14 1 -20 -8 -17 -16 3 -19 -2 -19 -31 0 -14 5 -18
19 -14 14 4 19 14 19 44 1 21 -3 39 -8 39 -4 0 -6 -9 -3 -21z"/>
<path d="M18855 5320 c-3 -5 -2 -10 4 -10 5 0 13 5 16 10 3 6 2 10 -4 10 -5 0
-13 -4 -16 -10z"/>
<path d="M18957 5323 c-3 -5 11 -7 30 -5 27 4 40 0 51 -14 13 -18 14 -18 10 1
-2 16 -12 21 -45 23 -22 2 -44 -1 -46 -5z"/>
<path d="M18770 5289 c0 -5 5 -7 10 -4 6 3 10 8 10 11 0 2 -4 4 -10 4 -5 0
-10 -5 -10 -11z"/>
<path d="M19041 5264 c0 -11 3 -14 6 -6 3 7 2 16 -1 19 -3 4 -6 -2 -5 -13z"/>
<path d="M19130 5256 c0 -8 -6 -17 -12 -19 -8 -3 -6 -6 5 -6 11 -1 17 6 17 19
0 11 -2 20 -5 20 -3 0 -5 -6 -5 -14z"/>
<path d="M19058 5233 c7 -3 16 -2 19 1 4 3 -2 6 -13 5 -11 0 -14 -3 -6 -6z"/>
<path d="M19140 5210 c-23 -7 -23 -8 -3 -9 12 -1 25 4 28 9 3 6 5 10 3 9 -2
-1 -14 -5 -28 -9z"/>
<path d="M19048 5203 c7 -3 16 -2 19 1 4 3 -2 6 -13 5 -11 0 -14 -3 -6 -6z"/>
<path d="M18980 5160 c0 -5 5 -10 11 -10 5 0 7 5 4 10 -3 6 -8 10 -11 10 -2 0
-4 -4 -4 -10z"/>
<path d="M19025 5149 c-11 -17 -2 -18 19 -3 17 12 17 14 4 14 -9 0 -20 -5 -23
-11z"/>
<path d="M19170 5150 c0 -5 7 -10 16 -10 8 0 12 5 9 10 -3 6 -10 10 -16 10 -5
0 -9 -4 -9 -10z"/>
<path d="M18558 5143 c7 -3 16 -2 19 1 4 3 -2 6 -13 5 -11 0 -14 -3 -6 -6z"/>
<path d="M19095 5120 c-3 -5 1 -10 9 -10 9 0 16 5 16 10 0 6 -4 10 -9 10 -6 0
-13 -4 -16 -10z"/>
<path d="M19168 5113 c6 -2 18 -2 25 0 6 3 1 5 -13 5 -14 0 -19 -2 -12 -5z"/>
<path d="M18768 5065 c2 -14 6 -25 8 -25 2 0 4 11 4 25 0 14 -4 25 -9 25 -4 0
-6 -11 -3 -25z"/>
<path d="M18638 5053 c7 -3 16 -2 19 1 4 3 -2 6 -13 5 -11 0 -14 -3 -6 -6z"/>
<path d="M18898 5053 c7 -3 16 -2 19 1 4 3 -2 6 -13 5 -11 0 -14 -3 -6 -6z"/>
<path d="M19075 5049 c-4 -6 -5 -12 -2 -15 2 -3 7 2 10 11 7 17 1 20 -8 4z"/>
<path d="M19133 5046 c4 -14 67 -21 67 -8 0 6 -16 12 -35 14 -22 2 -34 0 -32
-6z"/>
<path d="M18829 5037 c9 -11 27 -17 55 -16 l41 1 -35 8 c-19 4 -44 11 -55 16
-18 7 -18 6 -6 -9z"/>
<path d="M18801 5024 c0 -11 3 -14 6 -6 3 7 2 16 -1 19 -3 4 -6 -2 -5 -13z"/>
<path d="M19013 5033 c9 -2 23 -2 30 0 6 3 -1 5 -18 5 -16 0 -22 -2 -12 -5z"/>
<path d="M18698 5023 c7 -3 16 -2 19 1 4 3 -2 6 -13 5 -11 0 -14 -3 -6 -6z"/>
<path d="M19185 5010 c3 -5 8 -10 11 -10 2 0 4 5 4 10 0 6 -5 10 -11 10 -5 0
-7 -4 -4 -10z"/>
<path d="M19096 4994 c-8 -22 1 -31 16 -16 9 9 9 15 1 23 -7 7 -12 5 -17 -7z"/>
<path d="M19143 4992 c-1 -11 11 -26 30 -37 28 -16 30 -16 18 -2 -9 11 -10 17
-2 17 17 0 13 17 -6 24 -10 3 -23 8 -28 11 -6 3 -11 -3 -12 -13z"/>
<path d="M18943 4993 c9 -2 25 -2 35 0 9 3 1 5 -18 5 -19 0 -27 -2 -17 -5z"/>
<path d="M19050 4974 c0 -8 5 -12 10 -9 6 4 8 11 5 16 -9 14 -15 11 -15 -7z"/>
<path d="M18775 4970 c-3 -5 -1 -10 4 -10 6 0 11 5 11 10 0 6 -2 10 -4 10 -3
0 -8 -4 -11 -10z"/>
<path d="M18966 4955 c-11 -8 -15 -15 -10 -15 6 0 19 7 30 15 10 8 15 14 9 14
-5 0 -19 -6 -29 -14z"/>
<path d="M19081 4951 c-10 -6 -1 -11 28 -16 23 -4 45 -4 48 -1 4 3 -6 6 -20 6
-15 0 -27 5 -27 10 0 12 -10 13 -29 1z"/>
<path d="M19020 4945 c0 -4 12 -19 26 -32 14 -13 24 -26 22 -29 -8 -7 -38 7
-38 18 0 5 -7 2 -16 -6 -8 -9 -24 -16 -35 -16 -10 0 -19 -5 -19 -11 0 -6 9 -8
23 -4 12 4 24 7 27 7 71 1 120 -4 120 -11 0 -5 -9 -11 -20 -13 -12 -2 -20 -7
-20 -13 1 -5 7 -9 14 -7 7 1 30 -14 51 -33 22 -19 41 -32 44 -29 2 2 -4 11
-15 19 -16 13 -16 14 -1 9 20 -7 22 1 5 20 -7 7 -20 11 -30 8 -30 -7 -20 13
12 25 31 12 42 43 15 43 -8 0 -15 7 -15 15 0 9 -6 12 -15 9 -26 -10 -106 6
-99 19 4 7 4 9 -1 5 -4 -4 -14 -3 -22 3 -7 6 -13 8 -13 4z m90 -55 c0 -5 -7
-10 -15 -10 -8 0 -15 5 -15 10 0 6 7 10 15 10 8 0 15 -4 15 -10z m55 -1 c10
-15 2 -19 -23 -12 -12 3 -19 9 -16 14 7 12 31 11 39 -2z"/>
<path d="M18878 4933 c7 -3 16 -2 19 1 4 3 -2 6 -13 5 -11 0 -14 -3 -6 -6z"/>
<path d="M18955 4920 c3 -5 8 -10 11 -10 2 0 4 5 4 10 0 6 -5 10 -11 10 -5 0
-7 -4 -4 -10z"/>
<path d="M19180 4920 c0 -5 5 -10 10 -10 6 0 10 5 10 10 0 6 -4 10 -10 10 -5
0 -10 -4 -10 -10z"/>
<path d="M18508 4813 c6 -2 18 -2 25 0 6 3 1 5 -13 5 -14 0 -19 -2 -12 -5z"/>
<path d="M18708 4813 c7 -3 16 -2 19 1 4 3 -2 6 -13 5 -11 0 -14 -3 -6 -6z"/>
<path d="M18848 4813 c7 -3 16 -2 19 1 4 3 -2 6 -13 5 -11 0 -14 -3 -6 -6z"/>
<path d="M13830 4795 c0 -16 22 -45 31 -40 15 10 11 23 -11 35 -11 6 -20 8
-20 5z"/>
<path d="M19035 4790 c-3 -5 1 -10 9 -10 8 0 18 5 21 10 3 6 -1 10 -9 10 -8 0
-18 -4 -21 -10z"/>
<path d="M19080 4788 c0 -5 11 -8 25 -8 14 0 25 4 25 9 0 5 -11 8 -25 7 -14 0
-25 -4 -25 -8z"/>
<path d="M18861 4743 c-1 -16 5 -23 17 -23 10 0 13 3 6 8 -6 4 -14 14 -17 22
-4 10 -6 8 -6 -7z"/>
<path d="M19090 4751 c0 -5 7 -11 15 -15 8 -3 15 -1 15 5 0 6 7 9 15 5 8 -3
15 -1 15 4 0 6 -13 10 -30 10 -16 0 -30 -4 -30 -9z"/>
<path d="M19070 4741 c0 -6 4 -13 10 -16 6 -3 7 1 4 9 -7 18 -14 21 -14 7z"/>
<path d="M19020 4734 c0 -4 8 -13 18 -20 16 -12 15 -13 -8 -15 l-25 -1 25 -7
c32 -10 32 -9 24 23 -5 22 -34 39 -34 20z"/>
<path d="M18650 4710 c0 -5 5 -10 11 -10 5 0 7 5 4 10 -3 6 -8 10 -11 10 -2 0
-4 -4 -4 -10z"/>
<path d="M19140 4710 c0 -5 5 -10 10 -10 6 0 10 5 10 10 0 6 -4 10 -10 10 -5
0 -10 -4 -10 -10z"/>
<path d="M18843 4693 c9 -2 23 -2 30 0 6 3 -1 5 -18 5 -16 0 -22 -2 -12 -5z"/>
<path d="M19098 4693 c7 -3 16 -2 19 1 4 3 -2 6 -13 5 -11 0 -14 -3 -6 -6z"/>
<path d="M19168 4684 c-10 -16 2 -54 18 -54 8 0 14 5 14 10 0 6 -4 10 -9 10
-5 0 -11 10 -13 23 -2 12 -6 17 -10 11z"/>
<path d="M18760 4669 c-22 -6 -20 -7 13 -8 38 -1 47 3 25 11 -7 3 -24 1 -38
-3z"/>
<path d="M18828 4669 c-15 -9 3 -16 37 -14 17 1 48 3 69 3 22 1 37 4 34 7 -8
8 -128 11 -140 4z"/>
<path d="M19067 4672 c-10 -2 -22 -15 -27 -28 -8 -21 -13 -23 -29 -15 -16 9
-18 8 -14 -8 5 -20 59 -35 69 -19 3 4 0 8 -5 8 -6 0 -11 12 -11 26 0 16 5 24
13 21 6 -2 11 -9 10 -14 -3 -15 35 -13 41 3 3 9 10 12 16 9 5 -3 10 -2 10 3 0
11 -46 19 -73 14z"/>
<path d="M19120 4625 c-7 -8 -19 -15 -27 -15 -13 0 -13 -3 -2 -16 7 -8 21 -13
30 -11 10 3 24 -2 31 -10 10 -13 14 -13 25 3 17 23 17 38 0 31 -8 -3 -20 -1
-28 4 -12 8 -12 10 1 19 13 8 13 10 -1 10 -9 0 -22 -7 -29 -15z"/>
<path d="M18860 4620 c0 -5 -6 -10 -14 -10 -8 0 -17 -4 -20 -8 -3 -5 9 -9 27
-9 18 -1 27 1 20 4 -7 2 -9 11 -6 19 3 8 2 14 -1 14 -3 0 -6 -4 -6 -10z"/>
<path d="M18925 4580 c3 -5 11 -10 16 -10 6 0 7 5 4 10 -3 6 -11 10 -16 10 -6
0 -7 -4 -4 -10z"/>
<path d="M17998 4573 c7 -3 16 -2 19 1 4 3 -2 6 -13 5 -11 0 -14 -3 -6 -6z"/>
<path d="M18518 4573 c7 -3 16 -2 19 1 4 3 -2 6 -13 5 -11 0 -14 -3 -6 -6z"/>
<path d="M18978 4573 c7 -3 16 -2 19 1 4 3 -2 6 -13 5 -11 0 -14 -3 -6 -6z"/>
<path d="M19020 4568 c0 -9 5 -20 11 -23 17 -11 18 -2 3 19 -12 17 -14 17 -14
4z"/>
<path d="M19073 4556 c7 -14 13 -23 15 -21 7 6 -9 45 -18 45 -4 0 -3 -11 3
-24z"/>
<path d="M9531 4525 c-13 -43 -11 -128 3 -142 3 -4 13 2 21 13 17 22 17 165 0
171 -6 2 -17 -17 -24 -42z"/>
<path d="M19110 4560 c0 -5 7 -13 16 -18 8 -5 16 -17 18 -27 4 -29 26 -30 26
-1 0 14 8 29 17 35 10 5 14 13 9 18 -5 4 -11 2 -13 -4 -6 -15 -39 -17 -48 -3
-8 13 -25 13 -25 0z"/>
<path d="M18420 4550 c0 -5 5 -10 11 -10 5 0 7 5 4 10 -3 6 -8 10 -11 10 -2 0
-4 -4 -4 -10z"/>
<path d="M18888 4553 c7 -3 16 -2 19 1 4 3 -2 6 -13 5 -11 0 -14 -3 -6 -6z"/>
<path d="M18298 4543 c7 -3 16 -2 19 1 4 3 -2 6 -13 5 -11 0 -14 -3 -6 -6z"/>
<path d="M18185 4530 c-3 -5 3 -10 15 -10 12 0 18 5 15 10 -3 6 -10 10 -15 10
-5 0 -12 -4 -15 -10z"/>
<path d="M18250 4530 c0 -5 7 -10 15 -10 8 0 15 5 15 10 0 6 -7 10 -15 10 -8
0 -15 -4 -15 -10z"/>
<path d="M18566 4517 c-6 -24 0 -37 17 -36 9 0 9 2 0 6 -20 8 -15 23 7 23 25
0 26 16 1 23 -13 3 -21 -2 -25 -16z"/>
<path d="M18705 4520 c-3 -5 -1 -10 4 -10 6 0 11 5 11 10 0 6 -2 10 -4 10 -3
0 -8 -4 -11 -10z"/>
<path d="M18765 4520 c3 -5 8 -10 11 -10 2 0 4 5 4 10 0 6 -5 10 -11 10 -5 0
-7 -4 -4 -10z"/>
<path d="M19184 4519 c-3 -6 -1 -16 5 -22 8 -8 11 -5 11 11 0 24 -5 28 -16 11z"/>
<path d="M19015 4508 c4 -10 -12 -13 -62 -11 -48 1 -62 -2 -50 -9 10 -5 27 -8
40 -6 14 2 22 -2 22 -12 0 -11 -9 -14 -30 -12 l-30 3 29 -16 c26 -14 31 -14
46 0 9 8 31 15 49 15 25 0 32 4 27 15 -3 9 0 15 9 15 8 0 15 5 15 11 0 6 -9 9
-20 6 -11 -3 -20 -1 -20 4 0 5 -7 9 -15 9 -8 0 -12 -6 -10 -12z"/>
<path d="M19106 4505 c-9 -26 -7 -32 5 -12 6 10 9 21 6 23 -2 3 -7 -2 -11 -11z"/>
<path d="M18658 4483 c7 -3 16 -2 19 1 4 3 -2 6 -13 5 -11 0 -14 -3 -6 -6z"/>
<path d="M9011 4459 c-18 -19 -21 -20 -49 -5 -38 20 -37 20 -56 0 -25 -24 -19
-81 15 -147 32 -63 32 -87 1 -87 -24 0 -42 -19 -42 -45 0 -40 82 -95 170 -115
30 -7 68 -16 84 -21 47 -14 116 -11 122 5 7 18 -48 100 -82 122 -29 19 -31 45
-5 68 17 16 21 15 61 -6 23 -13 48 -34 55 -48 7 -14 25 -38 40 -55 34 -39 91
-126 108 -167 17 -40 54 -75 66 -62 29 31 41 160 20 206 -6 13 -20 28 -32 33
-12 6 -35 29 -52 52 -62 88 -179 200 -236 227 -62 29 -79 32 -79 14 0 -7 -6
-4 -12 7 -26 48 -65 58 -97 24z"/>
<path d="M17280 4450 c0 -5 7 -10 15 -10 8 0 15 5 15 10 0 6 -7 10 -15 10 -8
0 -15 -4 -15 -10z"/>
<path d="M18550 4449 c0 -6 -9 -9 -20 -6 -25 6 -27 -11 -2 -19 9 -3 25 -10 35
-15 10 -6 17 -6 17 0 0 5 8 12 18 14 12 3 10 5 -7 6 -16 1 -21 5 -17 16 3 9 0
15 -9 15 -8 0 -15 -5 -15 -11z"/>
<path d="M18648 4453 c-24 -6 -23 -44 1 -50 16 -4 17 -8 7 -29 -6 -14 -21 -27
-33 -30 -12 -3 -24 -12 -27 -20 -6 -16 10 -19 19 -4 4 6 11 8 16 4 6 -3 17 3
25 15 8 12 23 21 32 22 10 0 12 3 5 6 -20 7 -15 23 7 23 13 0 17 5 14 14 -4
12 11 14 81 14 48 0 89 3 92 6 4 3 -24 6 -61 6 -50 0 -68 4 -72 15 -7 18 -25
20 -21 3 1 -7 -6 -12 -15 -10 -9 1 -19 -2 -23 -8 -3 -5 -16 -10 -28 -9 l-22 0
21 9 c48 19 34 37 -18 23z"/>
<path d="M18818 4453 c7 -3 16 -2 19 1 4 3 -2 6 -13 5 -11 0 -14 -3 -6 -6z"/>
<path d="M18858 4453 c7 -3 16 -2 19 1 4 3 -2 6 -13 5 -11 0 -14 -3 -6 -6z"/>
<path d="M18385 4440 c-3 -5 -1 -10 4 -10 6 0 11 5 11 10 0 6 -2 10 -4 10 -3
0 -8 -4 -11 -10z"/>
<path d="M19004 4443 c10 -11 56 -11 56 -1 0 4 -14 8 -32 8 -17 0 -28 -3 -24
-7z"/>
<path d="M17580 4430 c0 -5 5 -10 10 -10 6 0 10 5 10 10 0 6 -4 10 -10 10 -5
0 -10 -4 -10 -10z"/>
<path d="M17703 4423 c9 -2 23 -2 30 0 6 3 -1 5 -18 5 -16 0 -22 -2 -12 -5z"/>
<path d="M17775 4419 c-4 -6 -5 -13 -2 -16 8 -7 47 7 47 18 0 13 -37 11 -45
-2z"/>
<path d="M18910 4424 c0 -4 8 -13 18 -21 15 -12 12 -13 -25 -8 -25 4 -50 2
-64 -6 -17 -9 -24 -9 -27 0 -2 6 -16 10 -30 10 -24 -2 -24 -2 -4 -6 12 -2 22
-11 22 -19 0 -18 6 -18 41 3 24 14 32 15 53 4 14 -8 36 -11 50 -7 14 3 28 1
31 -5 4 -6 14 -8 22 -5 9 4 22 1 30 -5 17 -15 28 -5 19 16 -4 11 -12 14 -27
10 -13 -5 -33 2 -59 19 -41 27 -50 30 -50 20z"/>
<path d="M17970 4386 c0 -8 -6 -17 -12 -19 -10 -4 -10 -6 -1 -6 7 -1 17 8 23
19 7 14 7 20 0 20 -5 0 -10 -6 -10 -14z"/>
<path d="M18305 4390 c-3 -6 1 -17 9 -26 9 -8 16 -21 16 -29 0 -18 20 -24 50
-13 13 5 38 8 55 7 49 -3 85 0 85 9 0 4 -33 7 -72 6 -55 0 -76 4 -86 15 -11
14 -11 14 -6 -1 8 -24 -13 -23 -26 1 -5 11 -10 22 -10 25 0 3 33 7 73 9 l72 3
-77 2 c-43 1 -80 -2 -83 -8z"/>
<path d="M18496 4385 c4 -9 19 -15 41 -15 20 0 32 4 28 10 -3 6 -17 7 -31 4
-14 -4 -24 -2 -24 5 0 6 -4 11 -10 11 -5 0 -7 -7 -4 -15z"/>
<path d="M17720 4380 c0 -5 5 -10 10 -10 6 0 10 5 10 10 0 6 -4 10 -10 10 -5
0 -10 -4 -10 -10z"/>
<path d="M17807 4369 c7 -7 15 -10 18 -7 3 3 -2 9 -12 12 -14 6 -15 5 -6 -5z"/>
<path d="M19088 4363 c7 -3 16 -2 19 1 4 3 -2 6 -13 5 -11 0 -14 -3 -6 -6z"/>
<path d="M17550 4336 c0 -10 9 -16 21 -16 24 0 21 23 -4 28 -10 2 -17 -3 -17
-12z"/>
<path d="M17708 4343 c7 -3 16 -2 19 1 4 3 -2 6 -13 5 -11 0 -14 -3 -6 -6z"/>
<path d="M18834 4335 c4 -13 2 -14 -14 -5 -33 18 -94 12 -108 -10 -8 -14 -23
-20 -47 -20 -19 0 -35 -4 -35 -10 0 -5 14 -10 30 -10 21 0 30 -5 30 -16 0 -12
4 -14 13 -6 6 5 24 8 40 6 33 -3 34 2 5 27 -20 16 -21 20 -8 29 19 12 50 13
50 1 0 -5 -8 -12 -17 -14 -10 -3 -2 -5 17 -5 19 1 42 -1 50 -3 21 -6 25 37 4
45 -12 5 -15 2 -10 -9z"/>
<path d="M18880 4336 c-5 -5 -10 -14 -10 -18 0 -12 48 -10 55 2 4 6 11 7 17 4
20 -13 76 -12 81 0 6 14 7 14 -75 19 -32 2 -62 -1 -68 -7z"/>
<path d="M16878 4333 c7 -3 16 -2 19 1 4 3 -2 6 -13 5 -11 0 -14 -3 -6 -6z"/>
<path d="M17780 4329 c0 -5 5 -7 10 -4 6 3 10 8 10 11 0 2 -4 4 -10 4 -5 0
-10 -5 -10 -11z"/>
<path d="M18278 4333 c7 -3 16 -2 19 1 4 3 -2 6 -13 5 -11 0 -14 -3 -6 -6z"/>
<path d="M18558 4333 c7 -3 16 -2 19 1 4 3 -2 6 -13 5 -11 0 -14 -3 -6 -6z"/>
<path d="M18670 4324 c0 -17 22 -14 28 4 2 7 -3 12 -12 12 -9 0 -16 -7 -16
-16z"/>
<path d="M17060 4305 c0 -17 2 -18 24 -9 23 9 20 24 -4 24 -11 0 -20 -7 -20
-15z"/>
<path d="M17280 4310 c0 -5 6 -10 14 -10 8 0 18 5 21 10 3 6 -3 10 -14 10 -12
0 -21 -4 -21 -10z"/>
<path d="M17740 4310 l-25 -8 28 -1 c15 -1 27 4 27 9 0 6 -1 10 -2 9 -2 -1
-14 -5 -28 -9z"/>
<path d="M18536 4309 c3 -5 0 -9 -5 -9 -21 0 -11 -16 17 -26 15 -6 37 -7 47
-3 16 6 13 8 -12 8 -35 1 -45 17 -15 23 12 3 9 6 -10 10 -15 3 -25 1 -22 -3z"/>
<path d="M17653 4303 c-16 -6 -17 -33 -3 -33 11 0 26 28 19 34 -2 2 -10 1 -16
-1z"/>
<path d="M18986 4297 c3 -10 9 -15 12 -12 3 3 0 11 -7 18 -10 9 -11 8 -5 -6z"/>
<path d="M17125 4290 c-3 -5 1 -10 9 -10 9 0 16 5 16 10 0 6 -4 10 -9 10 -6 0
-13 -4 -16 -10z"/>
<path d="M18350 4290 c0 -5 5 -10 10 -10 6 0 10 5 10 10 0 6 -4 10 -10 10 -5
0 -10 -4 -10 -10z"/>
<path d="M18870 4290 c0 -5 23 -10 50 -10 28 0 50 5 50 10 0 6 -22 10 -50 10
-27 0 -50 -4 -50 -10z"/>
<path d="M17271 4268 c-5 -13 -6 -27 -3 -33 3 -5 8 -2 10 5 3 8 9 20 14 27 5
7 5 14 -2 18 -5 3 -14 -4 -19 -17z"/>
<path d="M17445 4280 c-3 -5 3 -10 15 -10 12 0 18 5 15 10 -3 6 -10 10 -15 10
-5 0 -12 -4 -15 -10z"/>
<path d="M17511 4280 c-1 -18 -65 -45 -81 -35 -5 3 -10 2 -10 -4 0 -22 33 -29
58 -13 20 13 25 13 32 2 7 -11 11 -11 24 -1 20 17 21 31 2 31 -8 0 -17 8 -19
18 -4 13 -5 13 -6 2z"/>
<path d="M17701 4271 c-7 -5 -10 -14 -7 -20 11 -16 26 -13 20 4 -10 24 20 17
31 -7 8 -18 19 -24 50 -25 36 -2 38 -1 18 9 -13 6 -23 14 -23 19 0 6 -54 29
-69 29 -3 0 -12 -4 -20 -9z"/>
<path d="M18081 4276 c8 -8 88 -10 95 -3 4 4 -17 7 -46 7 -29 0 -51 -2 -49 -4z"/>
<path d="M18220 4270 c0 -5 4 -10 9 -10 6 0 13 5 16 10 3 6 -1 10 -9 10 -9 0
-16 -4 -16 -10z"/>
<path d="M18405 4270 c3 -5 12 -7 20 -3 21 7 19 13 -6 13 -11 0 -18 -4 -14
-10z"/>
<path d="M18805 4261 c17 -11 38 -18 47 -15 14 4 16 1 11 -11 -5 -14 -15 -16
-45 -12 -21 3 -36 1 -32 -4 3 -5 22 -9 42 -9 30 0 39 5 49 27 7 15 11 28 9 30
-2 2 -28 6 -57 9 l-54 6 30 -21z"/>
<path d="M18277 4245 c-17 -24 -17 -25 1 -25 14 0 20 7 20 25 0 14 -1 25 -2
25 0 0 -9 -12 -19 -25z"/>
<path d="M17560 4231 c0 -27 11 -32 46 -21 25 7 26 8 6 9 -12 1 -25 8 -28 16
-9 21 -24 19 -24 -4z"/>
<path d="M18723 4243 c9 -2 23 -2 30 0 6 3 -1 5 -18 5 -16 0 -22 -2 -12 -5z"/>
<path d="M18325 4230 c3 -5 8 -10 11 -10 2 0 4 5 4 10 0 6 -5 10 -11 10 -5 0
-7 -4 -4 -10z"/>
<path d="M18474 4226 c-3 -7 -4 -19 -2 -26 2 -8 -6 -15 -17 -17 -11 -2 -30 -9
-42 -15 -30 -15 -12 -38 28 -38 37 0 38 20 2 21 -22 1 -17 4 17 12 25 6 48 15
51 20 3 5 9 1 13 -8 3 -9 11 -13 17 -10 5 4 21 8 35 10 30 3 49 19 39 34 -4 8
-11 6 -21 -4 -19 -19 -34 -19 -34 -1 0 21 -31 28 -50 11 -19 -17 -30 -19 -30
-5 0 6 7 10 15 10 8 0 15 5 15 10 0 15 -30 12 -36 -4z"/>
<path d="M18890 4222 c0 -12 4 -22 9 -22 10 0 9 26 -2 36 -4 4 -7 -2 -7 -14z"/>
<path d="M17070 4210 c30 -24 34 -24 51 -4 11 13 9 14 -13 9 -15 -4 -29 -2
-32 4 -4 6 -13 11 -19 11 -7 0 -1 -9 13 -20z"/>
<path d="M18650 4220 c0 -5 5 -10 10 -10 6 0 10 5 10 10 0 6 -4 10 -10 10 -5
0 -10 -4 -10 -10z"/>
<path d="M17268 4213 c7 -3 16 -2 19 1 4 3 -2 6 -13 5 -11 0 -14 -3 -6 -6z"/>
<path d="M18105 4210 c3 -5 8 -10 11 -10 2 0 4 5 4 10 0 6 -5 10 -11 10 -5 0
-7 -4 -4 -10z"/>
<path d="M18740 4200 c13 -24 -2 -27 -20 -5 -9 11 -16 13 -24 5 -5 -5 -23 -10
-39 -10 -18 0 -26 -4 -21 -11 4 -6 19 -9 36 -5 21 4 35 0 50 -14 12 -11 28
-20 35 -20 8 0 11 -4 8 -10 -7 -11 0 -12 33 -4 30 8 26 44 -6 60 -13 6 -29 17
-35 23 -18 18 -29 13 -17 -9z"/>
<path d="M17340 4201 c0 -12 25 -21 57 -21 14 0 23 5 21 11 -5 14 -78 24 -78
10z"/>
<path d="M18430 4200 c0 -5 5 -10 10 -10 6 0 10 5 10 10 0 6 -4 10 -10 10 -5
0 -10 -4 -10 -10z"/>
<path d="M18176 4186 c3 -8 12 -12 21 -9 12 5 12 7 1 14 -20 13 -28 11 -22 -5z"/>
<path d="M17193 4183 c9 -2 23 -2 30 0 6 3 -1 5 -18 5 -16 0 -22 -2 -12 -5z"/>
<path d="M17445 4180 c3 -5 8 -10 11 -10 2 0 4 5 4 10 0 6 -5 10 -11 10 -5 0
-7 -4 -4 -10z"/>
<path d="M17495 4180 c3 -5 10 -10 16 -10 5 0 9 5 9 10 0 6 -7 10 -16 10 -8 0
-12 -4 -9 -10z"/>
<path d="M17537 4184 c-10 -10 2 -24 21 -24 10 0 22 -10 27 -22 8 -17 19 -22
48 -22 20 1 40 4 44 7 3 4 -10 7 -30 7 -29 0 -37 4 -37 18 0 23 -58 51 -73 36z"/>
<path d="M18070 4181 c0 -5 7 -11 15 -15 9 -3 15 0 15 9 0 8 -7 15 -15 15 -8
0 -15 -4 -15 -9z"/>
<path d="M18141 4174 c0 -11 3 -14 6 -6 3 7 2 16 -1 19 -3 4 -6 -2 -5 -13z"/>
<path d="M18258 4183 c6 -2 18 -2 25 0 6 3 1 5 -13 5 -14 0 -19 -2 -12 -5z"/>
<path d="M18830 4180 c0 -5 4 -10 9 -10 6 0 13 5 16 10 3 6 -1 10 -9 10 -9 0
-16 -4 -16 -10z"/>
<path d="M17650 4160 c0 -5 11 -10 25 -10 14 0 25 5 25 10 0 6 -11 10 -25 10
-14 0 -25 -4 -25 -10z"/>
<path d="M18268 4153 c7 -3 16 -2 19 1 4 3 -2 6 -13 5 -11 0 -14 -3 -6 -6z"/>
<path d="M18323 4153 c-7 -2 -13 -11 -13 -18 0 -22 -41 -45 -67 -39 -18 5 -22
3 -17 -10 3 -9 10 -14 15 -11 4 3 13 -4 19 -15 8 -16 21 -20 57 -20 39 0 44 2
31 13 -22 18 -31 47 -13 47 10 0 14 10 12 30 -2 31 -3 32 -24 23z m-13 -78
c10 -12 10 -15 -4 -15 -9 0 -16 7 -16 15 0 8 2 15 4 15 2 0 9 -7 16 -15z"/>
<path d="M17415 4140 c3 -5 8 -10 11 -10 2 0 4 5 4 10 0 6 -5 10 -11 10 -5 0
-7 -4 -4 -10z"/>
<path d="M17720 4140 c0 -5 7 -10 15 -10 8 0 15 5 15 10 0 6 -7 10 -15 10 -8
0 -15 -4 -15 -10z"/>
<path d="M18488 4139 c-10 -5 -18 -18 -18 -29 0 -15 9 -19 55 -22 30 -1 55 0
55 3 0 3 -19 12 -42 20 l-43 13 33 4 c18 2 30 8 27 13 -8 12 -45 11 -67 -2z"/>
<path d="M18570 4140 c0 -5 7 -10 15 -10 9 0 19 -8 22 -17 4 -10 13 -22 20
-26 7 -5 12 -11 9 -15 -8 -14 100 -5 129 11 26 14 27 16 9 17 -12 0 -27 7 -34
15 -18 22 -51 19 -57 -5 -3 -11 -8 -20 -12 -20 -11 0 -47 29 -37 30 5 0 3 7
-4 15 -14 17 -60 21 -60 5z"/>
<path d="M17208 4123 c7 -3 16 -2 19 1 4 3 -2 6 -13 5 -11 0 -14 -3 -6 -6z"/>
<path d="M18380 4114 c0 -15 26 -19 34 -5 3 5 -3 11 -14 14 -13 3 -20 0 -20
-9z"/>
<path d="M17130 4110 c0 -6 7 -10 15 -10 8 0 15 2 15 4 0 2 -7 6 -15 10 -8 3
-15 1 -15 -4z"/>
<path d="M17545 4110 c3 -5 13 -10 21 -10 8 0 14 5 14 10 0 6 -9 10 -21 10
-11 0 -17 -4 -14 -10z"/>
<path d="M18795 4110 c3 -5 10 -10 16 -10 5 0 9 5 9 10 0 6 -7 10 -16 10 -8 0
-12 -4 -9 -10z"/>
<path d="M18930 4081 c0 -5 -8 -12 -17 -14 -11 -3 -8 -5 9 -6 20 -1 26 3 22
14 -7 17 -14 20 -14 6z"/>
<path d="M18405 4060 c3 -5 8 -10 11 -10 2 0 4 5 4 10 0 6 -5 10 -11 10 -5 0
-7 -4 -4 -10z"/>
<path d="M17542 4030 c0 -14 2 -19 5 -12 2 6 2 18 0 25 -3 6 -5 1 -5 -13z"/>
<path d="M10337 3853 c-11 -66 15 -115 29 -58 7 29 -3 95 -15 95 -5 0 -11 -17
-14 -37z"/>
<path d="M10345 3722 c-3 -13 -4 -35 -1 -50 4 -15 7 -47 7 -72 1 -72 12 -93
20 -40 12 71 10 133 -5 159 l-14 24 -7 -21z"/>
<path d="M11446 3575 c-15 -8 -37 -15 -47 -15 -18 0 -25 -11 -14 -22 7 -7 104
27 118 41 17 17 -22 14 -57 -4z"/>
<path d="M10335 3420 c-23 -33 -26 -46 -21 -77 4 -21 8 -56 9 -77 2 -44 27
-64 27 -22 0 15 7 43 16 64 30 69 35 96 23 125 -6 15 -15 27 -19 27 -4 0 -20
-18 -35 -40z"/>
<path d="M9347 2973 c-15 -14 -3 -113 13 -113 4 0 26 14 50 31 41 30 42 31 23
48 -36 34 -72 48 -86 34z"/>
<path d="M9595 2829 c-54 -29 -68 -43 -32 -35 16 4 41 18 55 31 33 30 28 31
-23 4z"/>
<path d="M9318 2713 c7 -3 16 -2 19 1 4 3 -2 6 -13 5 -11 0 -14 -3 -6 -6z"/>
<path d="M5540 2091 c-14 -5 -34 -13 -45 -19 -11 -5 -40 -18 -65 -28 -25 -10
-51 -23 -59 -30 -8 -8 37 7 100 32 63 26 116 48 118 50 7 6 -21 3 -49 -5z"/>
<path d="M5328 1993 c7 -3 16 -2 19 1 4 3 -2 6 -13 5 -11 0 -14 -3 -6 -6z"/>
<path d="M18090 1236 c8 -8 38 -17 65 -20 28 -3 41 -3 30 0 -11 3 -37 12 -58
20 -47 18 -55 18 -37 0z"/>
<path d="M18315 1170 c-3 -4 7 -11 21 -14 35 -9 39 -4 8 11 -13 6 -26 8 -29 3z"/>
<path d="M18415 1130 c3 -5 13 -10 21 -10 8 0 12 5 9 10 -3 6 -13 10 -21 10
-8 0 -12 -4 -9 -10z"/>
<path d="M17950 1000 c0 -5 5 -10 11 -10 5 0 7 5 4 10 -3 6 -8 10 -11 10 -2 0
-4 -4 -4 -10z"/>
<path d="M18030 1000 c0 -5 5 -10 11 -10 5 0 7 5 4 10 -3 6 -8 10 -11 10 -2 0
-4 -4 -4 -10z"/>
<path d="M13051 924 c0 -11 3 -14 6 -6 3 7 2 16 -1 19 -3 4 -6 -2 -5 -13z"/>
<path d="M18078 913 c7 -3 16 -2 19 1 4 3 -2 6 -13 5 -11 0 -14 -3 -6 -6z"/>
<path d="M9740 860 c14 -4 36 -8 50 -8 22 0 22 1 -5 8 -16 4 -39 8 -50 8 -16
0 -15 -2 5 -8z"/>
<path d="M18260 709 c0 -11 4 -18 10 -14 5 3 7 12 3 20 -7 21 -13 19 -13 -6z"/>
<path d="M18310 682 c0 -5 7 -13 16 -16 10 -4 14 -1 12 6 -5 15 -28 23 -28 10z"/>
<path d="M18275 660 c-3 -5 -4 -10 -1 -10 2 0 12 -3 20 -6 12 -5 15 -2 10 10
-7 18 -20 21 -29 6z"/>
<path d="M18376 651 c-4 -5 -2 -12 3 -15 5 -4 12 -2 15 3 4 5 2 12 -3 15 -5 4
-12 2 -15 -3z"/>
<path d="M18445 640 c4 -6 11 -8 16 -5 14 9 11 15 -7 15 -8 0 -12 -5 -9 -10z"/>
<path d="M13032 606 c7 -8 15 -12 17 -11 5 6 -10 25 -20 25 -5 0 -4 -6 3 -14z"/>
<path d="M18480 595 c0 -26 21 -33 49 -16 11 7 7 13 -18 25 -31 16 -31 16 -31
-9z"/>
<path d="M18287 604 c-13 -13 -7 -24 14 -24 11 0 19 5 17 12 -5 14 -22 21 -31
12z"/>
<path d="M19058 593 c7 -3 16 -2 19 1 4 3 -2 6 -13 5 -11 0 -14 -3 -6 -6z"/>
<path d="M18380 579 c0 -5 5 -7 10 -4 6 3 10 8 10 11 0 2 -4 4 -10 4 -5 0 -10
-5 -10 -11z"/>
<path d="M18235 560 c-3 -5 1 -10 9 -10 9 0 16 5 16 10 0 6 -4 10 -9 10 -6 0
-13 -4 -16 -10z"/>
<path d="M18340 560 c0 -5 5 -10 10 -10 6 0 10 5 10 10 0 6 -4 10 -10 10 -5 0
-10 -4 -10 -10z"/>
<path d="M18960 560 c0 -5 17 -10 38 -9 30 0 33 2 17 9 -28 12 -55 12 -55 0z"/>
<path d="M18798 553 c7 -3 16 -2 19 1 4 3 -2 6 -13 5 -11 0 -14 -3 -6 -6z"/>
<path d="M19156 551 c-3 -5 1 -12 10 -15 25 -10 34 -7 34 9 0 16 -35 21 -44 6z"/>
<path d="M18270 540 c0 -5 14 -10 30 -10 17 0 30 5 30 10 0 6 -13 10 -30 10
-16 0 -30 -4 -30 -10z"/>
<path d="M18410 540 c0 -5 5 -10 11 -10 5 0 7 5 4 10 -3 6 -8 10 -11 10 -2 0
-4 -4 -4 -10z"/>
<path d="M18850 530 c-13 -8 -13 -10 2 -10 9 0 20 5 23 10 8 13 -5 13 -25 0z"/>
<path d="M19042 488 c7 -19 35 -21 41 -3 5 11 0 15 -19 15 -16 0 -24 -5 -22
-12z"/>
<path d="M18935 463 c11 -3 23 -10 26 -16 8 -12 39 -2 39 13 0 5 -19 9 -42 9
-24 -1 -34 -4 -23 -6z"/>
<path d="M18830 431 c0 -4 11 -6 25 -3 14 2 25 6 25 8 0 2 -11 4 -25 4 -14 0
-25 -4 -25 -9z"/>
<path d="M18620 420 c0 -5 5 -10 10 -10 6 0 10 5 10 10 0 6 -4 10 -10 10 -5 0
-10 -4 -10 -10z"/>
<path d="M18770 420 c0 -5 -11 -10 -25 -10 -16 0 -25 -6 -25 -15 0 -9 9 -15
25 -15 16 0 25 6 25 15 0 8 5 15 10 15 6 0 10 5 10 10 0 6 -4 10 -10 10 -5 0
-10 -4 -10 -10z"/>
<path d="M18480 401 c0 -19 22 -23 38 -7 15 15 14 16 -11 16 -15 0 -27 -4 -27
-9z"/>
<path d="M15241 54 c0 -11 3 -14 6 -6 3 7 2 16 -1 19 -3 4 -6 -2 -5 -13z"/>
</g>
</svg>
